<mxfile host="Electron" agent="Mozilla/5.0 (Macintosh; Intel Mac OS X 10_15_7) AppleWebKit/537.36 (KHTML, like Gecko) draw.io/28.1.2 Chrome/138.0.7204.243 Electron/37.4.0 Safari/537.36" version="28.1.2" pages="6">
  <diagram name="Process - Purchase New Item" id="EAhSfsG36SUYv7akcbB_">
    <mxGraphModel dx="1198" dy="880" grid="1" gridSize="10" guides="1" tooltips="1" connect="1" arrows="1" fold="1" page="1" pageScale="1" pageWidth="1100" pageHeight="850" math="0" shadow="0">
      <root>
        <mxCell id="0" />
        <mxCell id="1" parent="0" />
        <mxCell id="SN3CgkklpNIgR-Dp2-Ov-1" value="Purchase New Item" style="swimlane;html=1;childLayout=stackLayout;resizeParent=1;resizeParentMax=0;horizontal=0;startSize=20;horizontalStack=0;whiteSpace=wrap;" parent="1" vertex="1">
          <mxGeometry x="15" y="210" width="1070" height="620" as="geometry" />
        </mxCell>
        <mxCell id="SN3CgkklpNIgR-Dp2-Ov-2" value="Project Manager" style="swimlane;html=1;startSize=20;horizontal=0;" parent="SN3CgkklpNIgR-Dp2-Ov-1" vertex="1">
          <mxGeometry x="20" width="1050" height="200" as="geometry" />
        </mxCell>
        <mxCell id="57VAk2RcN6K6wlFu-ko4-4" style="edgeStyle=orthogonalEdgeStyle;rounded=0;orthogonalLoop=1;jettySize=auto;html=1;exitX=0.5;exitY=0.5;exitDx=0;exitDy=15;exitPerimeter=0;entryX=0.5;entryY=0;entryDx=0;entryDy=0;endArrow=block;endFill=1;" parent="SN3CgkklpNIgR-Dp2-Ov-2" source="57VAk2RcN6K6wlFu-ko4-2" target="57VAk2RcN6K6wlFu-ko4-3" edge="1">
          <mxGeometry relative="1" as="geometry" />
        </mxCell>
        <mxCell id="57VAk2RcN6K6wlFu-ko4-2" value="purchase inspection item" style="html=1;dashed=0;whiteSpace=wrap;shape=mxgraph.dfd.start;strokeWidth=2;" parent="SN3CgkklpNIgR-Dp2-Ov-2" vertex="1">
          <mxGeometry x="45" y="20" width="175" height="30" as="geometry" />
        </mxCell>
        <mxCell id="57VAk2RcN6K6wlFu-ko4-3" value="hands item to &lt;b&gt;Inventory Manager&lt;/b&gt;" style="rounded=1;whiteSpace=wrap;html=1;absoluteArcSize=1;arcSize=14;strokeWidth=2;" parent="SN3CgkklpNIgR-Dp2-Ov-2" vertex="1">
          <mxGeometry x="27.75" y="95" width="210" height="30" as="geometry" />
        </mxCell>
        <mxCell id="SN3CgkklpNIgR-Dp2-Ov-3" value="Inventory Manager" style="swimlane;html=1;startSize=20;horizontal=0;" parent="SN3CgkklpNIgR-Dp2-Ov-1" vertex="1">
          <mxGeometry x="20" y="200" width="1050" height="220" as="geometry" />
        </mxCell>
        <mxCell id="57VAk2RcN6K6wlFu-ko4-9" style="edgeStyle=orthogonalEdgeStyle;shape=connector;rounded=0;orthogonalLoop=1;jettySize=auto;html=1;strokeColor=default;align=center;verticalAlign=middle;fontFamily=Helvetica;fontSize=11;fontColor=default;labelBackgroundColor=default;endArrow=block;endFill=1;entryX=0.5;entryY=0;entryDx=0;entryDy=0;" parent="SN3CgkklpNIgR-Dp2-Ov-3" target="57VAk2RcN6K6wlFu-ko4-13" edge="1">
          <mxGeometry relative="1" as="geometry">
            <mxPoint x="132.42857142857156" y="70" as="sourcePoint" />
            <mxPoint x="132.74285714285725" y="120" as="targetPoint" />
          </mxGeometry>
        </mxCell>
        <mxCell id="57VAk2RcN6K6wlFu-ko4-10" value="&lt;font style=&quot;font-size: 12px;&quot;&gt;inputs item into &lt;i&gt;inventory management database&lt;/i&gt;&lt;/font&gt;" style="html=1;strokeWidth=2;shape=manualInput;whiteSpace=wrap;rounded=1;size=26;arcSize=11;fontFamily=Helvetica;fontSize=11;fontColor=default;labelBackgroundColor=default;verticalAlign=bottom;" parent="SN3CgkklpNIgR-Dp2-Ov-3" vertex="1">
          <mxGeometry x="53" y="20" width="160" height="60" as="geometry" />
        </mxCell>
        <mxCell id="57VAk2RcN6K6wlFu-ko4-12" value="Inspector hand-off" style="strokeWidth=2;html=1;shape=mxgraph.flowchart.decision;whiteSpace=wrap;fontFamily=Helvetica;fontSize=11;fontColor=default;labelBackgroundColor=default;" parent="SN3CgkklpNIgR-Dp2-Ov-3" vertex="1">
          <mxGeometry x="305" y="77.5" width="115" height="115" as="geometry" />
        </mxCell>
        <mxCell id="57VAk2RcN6K6wlFu-ko4-13" value="notifies team item is in database" style="rounded=1;whiteSpace=wrap;html=1;absoluteArcSize=1;arcSize=14;strokeWidth=2;" parent="SN3CgkklpNIgR-Dp2-Ov-3" vertex="1">
          <mxGeometry x="28" y="120" width="210" height="30" as="geometry" />
        </mxCell>
        <mxCell id="57VAk2RcN6K6wlFu-ko4-14" style="edgeStyle=orthogonalEdgeStyle;shape=connector;rounded=0;orthogonalLoop=1;jettySize=auto;html=1;entryX=0;entryY=0.5;entryDx=0;entryDy=0;entryPerimeter=0;strokeColor=default;align=center;verticalAlign=middle;fontFamily=Helvetica;fontSize=11;fontColor=default;labelBackgroundColor=default;endArrow=block;endFill=1;" parent="SN3CgkklpNIgR-Dp2-Ov-3" source="57VAk2RcN6K6wlFu-ko4-13" target="57VAk2RcN6K6wlFu-ko4-12" edge="1">
          <mxGeometry relative="1" as="geometry" />
        </mxCell>
        <mxCell id="57VAk2RcN6K6wlFu-ko4-11" style="edgeStyle=orthogonalEdgeStyle;shape=connector;rounded=0;orthogonalLoop=1;jettySize=auto;html=1;entryX=0.495;entryY=0.21;entryDx=0;entryDy=0;entryPerimeter=0;strokeColor=default;align=center;verticalAlign=middle;fontFamily=Helvetica;fontSize=11;fontColor=default;labelBackgroundColor=default;endArrow=block;endFill=1;" parent="SN3CgkklpNIgR-Dp2-Ov-1" source="57VAk2RcN6K6wlFu-ko4-3" target="57VAk2RcN6K6wlFu-ko4-10" edge="1">
          <mxGeometry relative="1" as="geometry" />
        </mxCell>
        <mxCell id="57VAk2RcN6K6wlFu-ko4-15" value="Inspection Room" style="edgeStyle=orthogonalEdgeStyle;shape=connector;rounded=0;orthogonalLoop=1;jettySize=auto;html=1;strokeColor=default;align=center;verticalAlign=middle;fontFamily=Helvetica;fontSize=11;fontColor=default;labelBackgroundColor=default;endArrow=block;endFill=1;spacing=2;entryX=0.503;entryY=-0.077;entryDx=0;entryDy=0;entryPerimeter=0;sourcePerimeterSpacing=0;jumpSize=5;jumpStyle=none;" parent="SN3CgkklpNIgR-Dp2-Ov-1" source="57VAk2RcN6K6wlFu-ko4-12" target="57VAk2RcN6K6wlFu-ko4-19" edge="1">
          <mxGeometry x="-0.6977" y="3" relative="1" as="geometry">
            <mxPoint x="383" y="510" as="targetPoint" />
            <mxPoint as="offset" />
          </mxGeometry>
        </mxCell>
        <mxCell id="57VAk2RcN6K6wlFu-ko4-16" style="edgeStyle=orthogonalEdgeStyle;shape=connector;rounded=0;orthogonalLoop=1;jettySize=auto;html=1;strokeColor=default;align=center;verticalAlign=middle;fontFamily=Helvetica;fontSize=11;fontColor=default;labelBackgroundColor=default;endArrow=block;endFill=1;spacing=2;entryX=0.524;entryY=0;entryDx=0;entryDy=0;entryPerimeter=0;" parent="SN3CgkklpNIgR-Dp2-Ov-1" source="57VAk2RcN6K6wlFu-ko4-12" target="57VAk2RcN6K6wlFu-ko4-22" edge="1">
          <mxGeometry relative="1" as="geometry">
            <mxPoint x="615" y="470" as="targetPoint" />
          </mxGeometry>
        </mxCell>
        <mxCell id="57VAk2RcN6K6wlFu-ko4-17" value="Truck" style="edgeLabel;html=1;align=center;verticalAlign=middle;resizable=0;points=[];fontFamily=Helvetica;fontSize=11;fontColor=default;labelBackgroundColor=default;spacing=2;" parent="57VAk2RcN6K6wlFu-ko4-16" vertex="1" connectable="0">
          <mxGeometry x="-0.4599" y="1" relative="1" as="geometry">
            <mxPoint as="offset" />
          </mxGeometry>
        </mxCell>
        <mxCell id="SN3CgkklpNIgR-Dp2-Ov-4" value="Inspector" style="swimlane;html=1;startSize=20;horizontal=0;" parent="SN3CgkklpNIgR-Dp2-Ov-1" vertex="1">
          <mxGeometry x="20" y="420" width="1050" height="200" as="geometry" />
        </mxCell>
        <mxCell id="57VAk2RcN6K6wlFu-ko4-23" style="edgeStyle=orthogonalEdgeStyle;shape=connector;rounded=0;orthogonalLoop=1;jettySize=auto;html=1;entryX=0;entryY=0.5;entryDx=0;entryDy=0;strokeColor=default;align=center;verticalAlign=middle;fontFamily=Helvetica;fontSize=11;fontColor=default;labelBackgroundColor=default;endArrow=block;endFill=1;" parent="SN3CgkklpNIgR-Dp2-Ov-4" source="57VAk2RcN6K6wlFu-ko4-19" target="57VAk2RcN6K6wlFu-ko4-22" edge="1">
          <mxGeometry relative="1" as="geometry" />
        </mxCell>
        <mxCell id="57VAk2RcN6K6wlFu-ko4-19" value="moves item to truck" style="rounded=1;whiteSpace=wrap;html=1;absoluteArcSize=1;arcSize=14;strokeWidth=2;" parent="SN3CgkklpNIgR-Dp2-Ov-4" vertex="1">
          <mxGeometry x="257.5" y="70" width="210" height="30" as="geometry" />
        </mxCell>
        <mxCell id="57VAk2RcN6K6wlFu-ko4-25" style="edgeStyle=orthogonalEdgeStyle;shape=connector;rounded=0;orthogonalLoop=1;jettySize=auto;html=1;entryX=0;entryY=0.5;entryDx=0;entryDy=0;strokeColor=default;align=center;verticalAlign=middle;fontFamily=Helvetica;fontSize=11;fontColor=default;labelBackgroundColor=default;endArrow=block;endFill=1;" parent="SN3CgkklpNIgR-Dp2-Ov-4" source="57VAk2RcN6K6wlFu-ko4-22" target="57VAk2RcN6K6wlFu-ko4-24" edge="1">
          <mxGeometry relative="1" as="geometry" />
        </mxCell>
        <mxCell id="57VAk2RcN6K6wlFu-ko4-22" value="use item during inspection" style="rounded=1;whiteSpace=wrap;html=1;absoluteArcSize=1;arcSize=14;strokeWidth=2;" parent="SN3CgkklpNIgR-Dp2-Ov-4" vertex="1">
          <mxGeometry x="535" y="70" width="210" height="30" as="geometry" />
        </mxCell>
        <mxCell id="57VAk2RcN6K6wlFu-ko4-24" value="lost / broken / damaged inspection item" style="verticalLabelPosition=bottom;verticalAlign=top;html=1;shape=offPageConnector;rounded=0;size=0.5;fontFamily=Helvetica;fontSize=11;fontColor=default;labelBackgroundColor=default;" parent="SN3CgkklpNIgR-Dp2-Ov-4" vertex="1">
          <mxGeometry x="915" y="55" width="60" height="60" as="geometry" />
        </mxCell>
        <mxCell id="57VAk2RcN6K6wlFu-ko4-1" value="Inventory Management Database" style="shape=datastore;html=1;labelPosition=center;verticalLabelPosition=top;align=center;verticalAlign=bottom;spacing=5;" parent="1" vertex="1">
          <mxGeometry x="500" y="50" width="100" height="100" as="geometry" />
        </mxCell>
        <mxCell id="57VAk2RcN6K6wlFu-ko4-7" style="edgeStyle=orthogonalEdgeStyle;shape=connector;rounded=0;orthogonalLoop=1;jettySize=auto;html=1;strokeColor=default;align=center;verticalAlign=middle;fontFamily=Helvetica;fontSize=11;fontColor=default;labelBackgroundColor=default;endArrow=doubleBlock;endFill=1;dashed=1;jumpStyle=none;exitX=1;exitY=0.5;exitDx=0;exitDy=0;" parent="1" source="57VAk2RcN6K6wlFu-ko4-10" target="57VAk2RcN6K6wlFu-ko4-1" edge="1">
          <mxGeometry relative="1" as="geometry">
            <mxPoint x="261.2499999999998" y="460" as="sourcePoint" />
            <mxPoint x="550" y="160" as="targetPoint" />
          </mxGeometry>
        </mxCell>
      </root>
    </mxGraphModel>
  </diagram>
  <diagram name="Process - Lose Inspection Item" id="ZtpfNtJ3kZFFjx4WHf2M">
    <mxGraphModel dx="1454" dy="1069" grid="1" gridSize="10" guides="1" tooltips="1" connect="1" arrows="1" fold="1" page="1" pageScale="1" pageWidth="1100" pageHeight="850" math="0" shadow="0">
      <root>
        <mxCell id="mGyT41afVtIUYSNGRSN6-0" />
        <mxCell id="mGyT41afVtIUYSNGRSN6-1" parent="mGyT41afVtIUYSNGRSN6-0" />
        <mxCell id="mGyT41afVtIUYSNGRSN6-2" value="Lose Inspection Item" style="swimlane;html=1;childLayout=stackLayout;resizeParent=1;resizeParentMax=0;horizontal=0;startSize=20;horizontalStack=0;whiteSpace=wrap;" parent="mGyT41afVtIUYSNGRSN6-1" vertex="1">
          <mxGeometry x="15" y="210" width="1070" height="620" as="geometry" />
        </mxCell>
        <mxCell id="mGyT41afVtIUYSNGRSN6-3" value="Project Manager" style="swimlane;html=1;startSize=20;horizontal=0;" parent="mGyT41afVtIUYSNGRSN6-2" vertex="1">
          <mxGeometry x="20" width="1050" height="200" as="geometry" />
        </mxCell>
        <mxCell id="mGyT41afVtIUYSNGRSN6-7" value="Inventory Manager" style="swimlane;html=1;startSize=20;horizontal=0;" parent="mGyT41afVtIUYSNGRSN6-2" vertex="1">
          <mxGeometry x="20" y="200" width="1050" height="220" as="geometry" />
        </mxCell>
        <mxCell id="-sUv8cghLxlqj26T9bs--0" value="&lt;font style=&quot;font-size: 12px;&quot;&gt;updates item quantity in&amp;nbsp;&lt;i&gt;inventory management database&lt;/i&gt;&lt;/font&gt;" style="html=1;strokeWidth=2;shape=manualInput;whiteSpace=wrap;rounded=1;size=26;arcSize=11;fontFamily=Helvetica;fontSize=11;fontColor=default;labelBackgroundColor=default;verticalAlign=bottom;" vertex="1" parent="mGyT41afVtIUYSNGRSN6-7">
          <mxGeometry x="245" y="40" width="160" height="80" as="geometry" />
        </mxCell>
        <mxCell id="-sUv8cghLxlqj26T9bs--1" value="&lt;font style=&quot;font-size: 12px;&quot;&gt;updates item health in&amp;nbsp;&lt;i&gt;inventory management database&lt;/i&gt;&lt;/font&gt;" style="html=1;strokeWidth=2;shape=manualInput;whiteSpace=wrap;rounded=1;size=26;arcSize=11;fontFamily=Helvetica;fontSize=11;fontColor=default;labelBackgroundColor=default;verticalAlign=bottom;" vertex="1" parent="mGyT41afVtIUYSNGRSN6-7">
          <mxGeometry x="435" y="40" width="160" height="80" as="geometry" />
        </mxCell>
        <mxCell id="Mb1jxXCgMExS3OgF_k6z-1" style="edgeStyle=orthogonalEdgeStyle;rounded=0;orthogonalLoop=1;jettySize=auto;html=1;exitX=0.5;exitY=0;exitDx=0;exitDy=0;entryX=0.444;entryY=1.016;entryDx=0;entryDy=0;entryPerimeter=0;" edge="1" parent="mGyT41afVtIUYSNGRSN6-2" source="5_LHK3ikZrisLFFan8-G-0" target="-sUv8cghLxlqj26T9bs--0">
          <mxGeometry relative="1" as="geometry" />
        </mxCell>
        <mxCell id="Mb1jxXCgMExS3OgF_k6z-2" value="lost / broken" style="edgeLabel;html=1;align=center;verticalAlign=middle;resizable=0;points=[];" vertex="1" connectable="0" parent="Mb1jxXCgMExS3OgF_k6z-1">
          <mxGeometry x="0.081" relative="1" as="geometry">
            <mxPoint x="5" as="offset" />
          </mxGeometry>
        </mxCell>
        <mxCell id="mGyT41afVtIUYSNGRSN6-17" value="Inspector" style="swimlane;html=1;startSize=20;horizontal=0;" parent="mGyT41afVtIUYSNGRSN6-2" vertex="1">
          <mxGeometry x="20" y="420" width="1050" height="200" as="geometry" />
        </mxCell>
        <mxCell id="5_LHK3ikZrisLFFan8-G-1" style="edgeStyle=orthogonalEdgeStyle;rounded=0;orthogonalLoop=1;jettySize=auto;html=1;entryX=0;entryY=0.5;entryDx=0;entryDy=0;" edge="1" parent="mGyT41afVtIUYSNGRSN6-17" source="mGyT41afVtIUYSNGRSN6-22" target="5_LHK3ikZrisLFFan8-G-0">
          <mxGeometry relative="1" as="geometry" />
        </mxCell>
        <mxCell id="5_LHK3ikZrisLFFan8-G-2" value="lost / broken / damaged" style="edgeLabel;html=1;align=center;verticalAlign=middle;resizable=0;points=[];" vertex="1" connectable="0" parent="5_LHK3ikZrisLFFan8-G-1">
          <mxGeometry x="-0.0933" y="2" relative="1" as="geometry">
            <mxPoint y="2" as="offset" />
          </mxGeometry>
        </mxCell>
        <mxCell id="mGyT41afVtIUYSNGRSN6-22" value="lost / broken / damaged inspection item" style="verticalLabelPosition=bottom;verticalAlign=top;html=1;shape=offPageConnector;rounded=0;size=0.5;fontFamily=Helvetica;fontSize=11;fontColor=default;labelBackgroundColor=default;" parent="mGyT41afVtIUYSNGRSN6-17" vertex="1">
          <mxGeometry x="105" y="30" width="60" height="60" as="geometry" />
        </mxCell>
        <mxCell id="5_LHK3ikZrisLFFan8-G-0" value="notifies Inventory Manager" style="rounded=1;whiteSpace=wrap;html=1;" vertex="1" parent="mGyT41afVtIUYSNGRSN6-17">
          <mxGeometry x="330" y="50" width="185" height="20" as="geometry" />
        </mxCell>
        <mxCell id="Ilcx-GrtD4Q14xBEpioU-0" style="edgeStyle=orthogonalEdgeStyle;rounded=0;orthogonalLoop=1;jettySize=auto;html=1;entryX=0.5;entryY=1;entryDx=0;entryDy=0;" edge="1" parent="mGyT41afVtIUYSNGRSN6-2" source="5_LHK3ikZrisLFFan8-G-0" target="-sUv8cghLxlqj26T9bs--1">
          <mxGeometry relative="1" as="geometry" />
        </mxCell>
        <mxCell id="Ilcx-GrtD4Q14xBEpioU-1" value="damaged" style="edgeLabel;html=1;align=center;verticalAlign=middle;resizable=0;points=[];" vertex="1" connectable="0" parent="Ilcx-GrtD4Q14xBEpioU-0">
          <mxGeometry x="-0.0794" y="1" relative="1" as="geometry">
            <mxPoint x="6" as="offset" />
          </mxGeometry>
        </mxCell>
        <mxCell id="mGyT41afVtIUYSNGRSN6-23" value="Inventory Management Database" style="shape=datastore;html=1;labelPosition=center;verticalLabelPosition=top;align=center;verticalAlign=bottom;spacing=5;" parent="mGyT41afVtIUYSNGRSN6-1" vertex="1">
          <mxGeometry x="500" y="50" width="100" height="100" as="geometry" />
        </mxCell>
        <mxCell id="-sUv8cghLxlqj26T9bs--2" style="edgeStyle=orthogonalEdgeStyle;rounded=0;orthogonalLoop=1;jettySize=auto;html=1;exitX=0.495;exitY=0.128;exitDx=0;exitDy=0;entryX=0;entryY=0.5;entryDx=0;entryDy=0;endArrow=doubleBlock;endFill=1;dashed=1;exitPerimeter=0;" edge="1" parent="mGyT41afVtIUYSNGRSN6-1" source="-sUv8cghLxlqj26T9bs--0" target="mGyT41afVtIUYSNGRSN6-23">
          <mxGeometry relative="1" as="geometry">
            <Array as="points">
              <mxPoint x="359" y="100" />
            </Array>
          </mxGeometry>
        </mxCell>
        <mxCell id="Mb1jxXCgMExS3OgF_k6z-0" style="edgeStyle=orthogonalEdgeStyle;rounded=0;orthogonalLoop=1;jettySize=auto;html=1;entryX=0.5;entryY=1;entryDx=0;entryDy=0;exitX=0.496;exitY=0.136;exitDx=0;exitDy=0;exitPerimeter=0;dashed=1;endArrow=doubleBlock;endFill=1;" edge="1" parent="mGyT41afVtIUYSNGRSN6-1" source="-sUv8cghLxlqj26T9bs--1" target="mGyT41afVtIUYSNGRSN6-23">
          <mxGeometry relative="1" as="geometry" />
        </mxCell>
      </root>
    </mxGraphModel>
  </diagram>
  <diagram name="Process - Inventory Check" id="Q2m7EtGzh2EdXLZXGjmU">
    <mxGraphModel dx="2036" dy="1496" grid="1" gridSize="10" guides="1" tooltips="1" connect="1" arrows="1" fold="1" page="1" pageScale="1" pageWidth="1100" pageHeight="850" math="0" shadow="0">
      <root>
        <mxCell id="kkOMyrCdeaVadqKZCEdv-0" />
        <mxCell id="kkOMyrCdeaVadqKZCEdv-1" parent="kkOMyrCdeaVadqKZCEdv-0" />
        <mxCell id="kkOMyrCdeaVadqKZCEdv-2" value="Purchase New Item" style="swimlane;html=1;childLayout=stackLayout;resizeParent=1;resizeParentMax=0;horizontal=0;startSize=20;horizontalStack=0;whiteSpace=wrap;" vertex="1" parent="kkOMyrCdeaVadqKZCEdv-1">
          <mxGeometry x="15" y="210" width="1070" height="630" as="geometry" />
        </mxCell>
        <mxCell id="kkOMyrCdeaVadqKZCEdv-3" value="Project Manager" style="swimlane;html=1;startSize=20;horizontal=0;" vertex="1" parent="kkOMyrCdeaVadqKZCEdv-2">
          <mxGeometry x="20" width="1050" height="200" as="geometry" />
        </mxCell>
        <mxCell id="Pyxv_u6bfrD4TJJI74Sx-1" style="rounded=0;orthogonalLoop=1;jettySize=auto;html=1;exitX=0.5;exitY=0.5;exitDx=0;exitDy=15;exitPerimeter=0;endArrow=none;endFill=0;elbow=vertical;startArrow=none;startFill=0;strokeColor=default;strokeWidth=1;dashed=1;dashPattern=1 4;" edge="1" parent="kkOMyrCdeaVadqKZCEdv-2" source="kkOMyrCdeaVadqKZCEdv-5" target="Pyxv_u6bfrD4TJJI74Sx-0">
          <mxGeometry relative="1" as="geometry" />
        </mxCell>
        <mxCell id="kkOMyrCdeaVadqKZCEdv-7" value="Inventory Manager" style="swimlane;html=1;startSize=20;horizontal=0;" vertex="1" parent="kkOMyrCdeaVadqKZCEdv-2">
          <mxGeometry x="20" y="200" width="1050" height="230" as="geometry" />
        </mxCell>
        <mxCell id="kkOMyrCdeaVadqKZCEdv-5" value="perform inventory check" style="html=1;dashed=0;whiteSpace=wrap;shape=mxgraph.dfd.start;strokeWidth=2;" vertex="1" parent="kkOMyrCdeaVadqKZCEdv-7">
          <mxGeometry x="45" y="80" width="175" height="30" as="geometry" />
        </mxCell>
        <mxCell id="JBKrdHb7tK8kqNnVM9W_-3" style="edgeStyle=orthogonalEdgeStyle;rounded=0;orthogonalLoop=1;jettySize=auto;html=1;entryX=0;entryY=0.5;entryDx=0;entryDy=0;exitX=1.01;exitY=0.694;exitDx=0;exitDy=0;exitPerimeter=0;" edge="1" parent="kkOMyrCdeaVadqKZCEdv-7" source="HXmtpkmfQCCf_T5vnAq4-0" target="JBKrdHb7tK8kqNnVM9W_-2">
          <mxGeometry relative="1" as="geometry">
            <mxPoint x="535" y="110" as="sourcePoint" />
          </mxGeometry>
        </mxCell>
        <mxCell id="HXmtpkmfQCCf_T5vnAq4-0" value="&lt;font style=&quot;font-size: 12px;&quot;&gt;update item health and quantities in&amp;nbsp;&lt;i&gt;inventory management database&lt;/i&gt;&lt;/font&gt;" style="html=1;strokeWidth=2;shape=manualInput;whiteSpace=wrap;rounded=1;size=26;arcSize=11;fontFamily=Helvetica;fontSize=11;fontColor=default;labelBackgroundColor=default;verticalAlign=bottom;" vertex="1" parent="kkOMyrCdeaVadqKZCEdv-7">
          <mxGeometry x="335" y="40" width="160" height="80" as="geometry" />
        </mxCell>
        <mxCell id="HXmtpkmfQCCf_T5vnAq4-1" style="edgeStyle=orthogonalEdgeStyle;rounded=0;orthogonalLoop=1;jettySize=auto;html=1;entryX=-0.015;entryY=0.683;entryDx=0;entryDy=0;entryPerimeter=0;" edge="1" parent="kkOMyrCdeaVadqKZCEdv-7" source="kkOMyrCdeaVadqKZCEdv-5" target="HXmtpkmfQCCf_T5vnAq4-0">
          <mxGeometry relative="1" as="geometry">
            <mxPoint x="285" y="120" as="targetPoint" />
          </mxGeometry>
        </mxCell>
        <mxCell id="JBKrdHb7tK8kqNnVM9W_-2" value="notifies Project Manager of items that need to be restocked / purchased" style="rounded=1;whiteSpace=wrap;html=1;" vertex="1" parent="kkOMyrCdeaVadqKZCEdv-7">
          <mxGeometry x="645" y="72.5" width="275" height="45" as="geometry" />
        </mxCell>
        <mxCell id="kkOMyrCdeaVadqKZCEdv-17" value="Inspector" style="swimlane;html=1;startSize=20;horizontal=0;" vertex="1" parent="kkOMyrCdeaVadqKZCEdv-2">
          <mxGeometry x="20" y="430" width="1050" height="200" as="geometry" />
        </mxCell>
        <mxCell id="JBKrdHb7tK8kqNnVM9W_-0" style="edgeStyle=orthogonalEdgeStyle;rounded=0;orthogonalLoop=1;jettySize=auto;html=1;entryX=0;entryY=0.5;entryDx=0;entryDy=0;" edge="1" parent="kkOMyrCdeaVadqKZCEdv-17" source="Pyxv_u6bfrD4TJJI74Sx-0" target="wV4PG9NvZ-WhnX0ImoVA-0">
          <mxGeometry relative="1" as="geometry" />
        </mxCell>
        <mxCell id="Pyxv_u6bfrD4TJJI74Sx-0" value="perform inventory check" style="html=1;dashed=0;whiteSpace=wrap;shape=mxgraph.dfd.start;strokeWidth=2;" vertex="1" parent="kkOMyrCdeaVadqKZCEdv-17">
          <mxGeometry x="45" y="80" width="175" height="30" as="geometry" />
        </mxCell>
        <mxCell id="wV4PG9NvZ-WhnX0ImoVA-0" value="hands inventory check sheet to Inventory Manager" style="rounded=1;whiteSpace=wrap;html=1;" vertex="1" parent="kkOMyrCdeaVadqKZCEdv-17">
          <mxGeometry x="312.5" y="72.5" width="205" height="45" as="geometry" />
        </mxCell>
        <mxCell id="JBKrdHb7tK8kqNnVM9W_-1" style="edgeStyle=orthogonalEdgeStyle;rounded=0;orthogonalLoop=1;jettySize=auto;html=1;entryX=0.5;entryY=1;entryDx=0;entryDy=0;" edge="1" parent="kkOMyrCdeaVadqKZCEdv-2" source="wV4PG9NvZ-WhnX0ImoVA-0" target="HXmtpkmfQCCf_T5vnAq4-0">
          <mxGeometry relative="1" as="geometry" />
        </mxCell>
        <mxCell id="kkOMyrCdeaVadqKZCEdv-23" value="Inventory Management Database" style="shape=datastore;html=1;labelPosition=center;verticalLabelPosition=top;align=center;verticalAlign=bottom;spacing=5;" vertex="1" parent="kkOMyrCdeaVadqKZCEdv-1">
          <mxGeometry x="500" y="50" width="100" height="100" as="geometry" />
        </mxCell>
        <mxCell id="HXmtpkmfQCCf_T5vnAq4-2" style="edgeStyle=orthogonalEdgeStyle;rounded=0;orthogonalLoop=1;jettySize=auto;html=1;entryX=0;entryY=0.5;entryDx=0;entryDy=0;exitX=0.5;exitY=0.125;exitDx=0;exitDy=0;exitPerimeter=0;dashed=1;endArrow=doubleBlock;endFill=1;" edge="1" parent="kkOMyrCdeaVadqKZCEdv-1" source="HXmtpkmfQCCf_T5vnAq4-0" target="kkOMyrCdeaVadqKZCEdv-23">
          <mxGeometry relative="1" as="geometry" />
        </mxCell>
      </root>
    </mxGraphModel>
  </diagram>
  <diagram name="Process - Inspectors Request New Items" id="ac-eGa4etKH6EBoG-whb">
    <mxGraphModel dx="1566" dy="1151" grid="1" gridSize="10" guides="1" tooltips="1" connect="1" arrows="1" fold="1" page="1" pageScale="1" pageWidth="1100" pageHeight="850" math="0" shadow="0">
      <root>
        <mxCell id="BL2I7CEZSBdQ12t2eT5C-0" />
        <mxCell id="BL2I7CEZSBdQ12t2eT5C-1" parent="BL2I7CEZSBdQ12t2eT5C-0" />
        <mxCell id="BL2I7CEZSBdQ12t2eT5C-2" value="Purchase New Item" style="swimlane;html=1;childLayout=stackLayout;resizeParent=1;resizeParentMax=0;horizontal=0;startSize=20;horizontalStack=0;whiteSpace=wrap;" vertex="1" parent="BL2I7CEZSBdQ12t2eT5C-1">
          <mxGeometry x="15" y="170" width="1070" height="660" as="geometry" />
        </mxCell>
        <mxCell id="BL2I7CEZSBdQ12t2eT5C-3" value="Project Manager" style="swimlane;html=1;startSize=20;horizontal=0;" vertex="1" parent="BL2I7CEZSBdQ12t2eT5C-2">
          <mxGeometry x="20" width="1050" height="200" as="geometry" />
        </mxCell>
        <mxCell id="BL2I7CEZSBdQ12t2eT5C-5" value="Inventory Manager" style="swimlane;html=1;startSize=20;horizontal=0;" vertex="1" parent="BL2I7CEZSBdQ12t2eT5C-2">
          <mxGeometry x="20" y="200" width="1050" height="230" as="geometry" />
        </mxCell>
        <mxCell id="BL2I7CEZSBdQ12t2eT5C-7" style="edgeStyle=orthogonalEdgeStyle;rounded=0;orthogonalLoop=1;jettySize=auto;html=1;entryX=0;entryY=0.5;entryDx=0;entryDy=0;exitX=1.01;exitY=0.694;exitDx=0;exitDy=0;exitPerimeter=0;" edge="1" parent="BL2I7CEZSBdQ12t2eT5C-5" source="BL2I7CEZSBdQ12t2eT5C-8" target="BL2I7CEZSBdQ12t2eT5C-10">
          <mxGeometry relative="1" as="geometry">
            <mxPoint x="535" y="110" as="sourcePoint" />
            <Array as="points">
              <mxPoint x="625" y="96" />
              <mxPoint x="625" y="183" />
            </Array>
          </mxGeometry>
        </mxCell>
        <mxCell id="BL2I7CEZSBdQ12t2eT5C-8" value="&lt;font style=&quot;font-size: 12px;&quot;&gt;update wishlist with requested item in&amp;nbsp;&lt;i&gt;inventory management database&lt;/i&gt;&lt;/font&gt;" style="html=1;strokeWidth=2;shape=manualInput;whiteSpace=wrap;rounded=1;size=26;arcSize=11;fontFamily=Helvetica;fontSize=11;fontColor=default;labelBackgroundColor=default;verticalAlign=bottom;" vertex="1" parent="BL2I7CEZSBdQ12t2eT5C-5">
          <mxGeometry x="307.5" y="40" width="160" height="80" as="geometry" />
        </mxCell>
        <mxCell id="BL2I7CEZSBdQ12t2eT5C-10" value="notifies Project Manager of items that need to be restocked / purchased" style="rounded=1;whiteSpace=wrap;html=1;" vertex="1" parent="BL2I7CEZSBdQ12t2eT5C-5">
          <mxGeometry x="755" y="160" width="275" height="45" as="geometry" />
        </mxCell>
        <mxCell id="BL2I7CEZSBdQ12t2eT5C-15" style="edgeStyle=orthogonalEdgeStyle;rounded=0;orthogonalLoop=1;jettySize=auto;html=1;entryX=0.5;entryY=1;entryDx=0;entryDy=0;" edge="1" parent="BL2I7CEZSBdQ12t2eT5C-2" source="BL2I7CEZSBdQ12t2eT5C-14" target="BL2I7CEZSBdQ12t2eT5C-8">
          <mxGeometry relative="1" as="geometry" />
        </mxCell>
        <mxCell id="BL2I7CEZSBdQ12t2eT5C-11" value="Inspector" style="swimlane;html=1;startSize=20;horizontal=0;" vertex="1" parent="BL2I7CEZSBdQ12t2eT5C-2">
          <mxGeometry x="20" y="430" width="1050" height="230" as="geometry" />
        </mxCell>
        <mxCell id="BL2I7CEZSBdQ12t2eT5C-12" style="edgeStyle=orthogonalEdgeStyle;rounded=0;orthogonalLoop=1;jettySize=auto;html=1;entryX=0;entryY=0.5;entryDx=0;entryDy=0;" edge="1" parent="BL2I7CEZSBdQ12t2eT5C-11" source="BL2I7CEZSBdQ12t2eT5C-13" target="BL2I7CEZSBdQ12t2eT5C-14">
          <mxGeometry relative="1" as="geometry">
            <Array as="points">
              <mxPoint x="255" y="145" />
              <mxPoint x="255" y="54" />
            </Array>
          </mxGeometry>
        </mxCell>
        <mxCell id="ZLg3Nmc0tY5nUayQEl2c-1" style="edgeStyle=orthogonalEdgeStyle;rounded=0;orthogonalLoop=1;jettySize=auto;html=1;entryX=0;entryY=0.75;entryDx=0;entryDy=0;" edge="1" parent="BL2I7CEZSBdQ12t2eT5C-11" source="BL2I7CEZSBdQ12t2eT5C-13" target="ZLg3Nmc0tY5nUayQEl2c-0">
          <mxGeometry relative="1" as="geometry">
            <Array as="points">
              <mxPoint x="255" y="145" />
              <mxPoint x="255" y="180" />
            </Array>
          </mxGeometry>
        </mxCell>
        <mxCell id="BL2I7CEZSBdQ12t2eT5C-13" value="request new items" style="html=1;dashed=0;whiteSpace=wrap;shape=mxgraph.dfd.start;strokeWidth=2;" vertex="1" parent="BL2I7CEZSBdQ12t2eT5C-11">
          <mxGeometry x="55" y="130" width="175" height="30" as="geometry" />
        </mxCell>
        <mxCell id="BL2I7CEZSBdQ12t2eT5C-14" value="notify Inventory Manager" style="rounded=1;whiteSpace=wrap;html=1;" vertex="1" parent="BL2I7CEZSBdQ12t2eT5C-11">
          <mxGeometry x="285" y="40" width="205" height="27.5" as="geometry" />
        </mxCell>
        <mxCell id="ZLg3Nmc0tY5nUayQEl2c-0" value="&lt;font style=&quot;font-size: 12px;&quot;&gt;update wishlist with requested item in&amp;nbsp;&lt;i&gt;inventory management database&lt;/i&gt;&lt;/font&gt;" style="html=1;strokeWidth=2;shape=manualInput;whiteSpace=wrap;rounded=1;size=26;arcSize=11;fontFamily=Helvetica;fontSize=11;fontColor=default;labelBackgroundColor=default;verticalAlign=bottom;" vertex="1" parent="BL2I7CEZSBdQ12t2eT5C-11">
          <mxGeometry x="330" y="120" width="160" height="80" as="geometry" />
        </mxCell>
        <mxCell id="ZLg3Nmc0tY5nUayQEl2c-6" style="edgeStyle=orthogonalEdgeStyle;rounded=0;orthogonalLoop=1;jettySize=auto;html=1;exitX=1;exitY=0.5;exitDx=0;exitDy=0;entryX=0.5;entryY=1;entryDx=0;entryDy=0;" edge="1" parent="BL2I7CEZSBdQ12t2eT5C-2" source="ZLg3Nmc0tY5nUayQEl2c-0" target="BL2I7CEZSBdQ12t2eT5C-10">
          <mxGeometry relative="1" as="geometry">
            <mxPoint x="645" y="390" as="targetPoint" />
          </mxGeometry>
        </mxCell>
        <mxCell id="BL2I7CEZSBdQ12t2eT5C-16" value="Inventory Management Database" style="shape=datastore;html=1;labelPosition=center;verticalLabelPosition=top;align=center;verticalAlign=bottom;spacing=5;" vertex="1" parent="BL2I7CEZSBdQ12t2eT5C-1">
          <mxGeometry x="500" y="50" width="100" height="100" as="geometry" />
        </mxCell>
        <mxCell id="BL2I7CEZSBdQ12t2eT5C-17" style="edgeStyle=orthogonalEdgeStyle;rounded=0;orthogonalLoop=1;jettySize=auto;html=1;entryX=0;entryY=0.5;entryDx=0;entryDy=0;exitX=0.5;exitY=0.125;exitDx=0;exitDy=0;exitPerimeter=0;dashed=1;endArrow=doubleBlock;endFill=1;" edge="1" parent="BL2I7CEZSBdQ12t2eT5C-1" source="BL2I7CEZSBdQ12t2eT5C-8" target="BL2I7CEZSBdQ12t2eT5C-16">
          <mxGeometry relative="1" as="geometry" />
        </mxCell>
        <mxCell id="ZLg3Nmc0tY5nUayQEl2c-7" style="edgeStyle=orthogonalEdgeStyle;rounded=0;orthogonalLoop=1;jettySize=auto;html=1;entryX=0.5;entryY=1;entryDx=0;entryDy=0;dashed=1;endArrow=doubleBlock;endFill=1;" edge="1" parent="BL2I7CEZSBdQ12t2eT5C-1" source="ZLg3Nmc0tY5nUayQEl2c-0" target="BL2I7CEZSBdQ12t2eT5C-16">
          <mxGeometry relative="1" as="geometry">
            <Array as="points">
              <mxPoint x="550" y="760" />
            </Array>
          </mxGeometry>
        </mxCell>
      </root>
    </mxGraphModel>
  </diagram>
  <diagram id="Bu1zZ2eEDug-zlZEhyMO" name="Entity Relationship Diagram">
    <mxGraphModel dx="1323" dy="787" grid="1" gridSize="10" guides="1" tooltips="1" connect="1" arrows="1" fold="1" page="1" pageScale="1" pageWidth="3300" pageHeight="2339" math="0" shadow="0">
      <root>
        <mxCell id="0" />
        <mxCell id="1" parent="0" />
        <mxCell id="PksQQbky92vX9yiBjoE5-1" value="Fact_Orders" style="shape=table;startSize=30;container=1;collapsible=1;childLayout=tableLayout;fixedRows=1;rowLines=0;fontStyle=1;align=center;resizeLast=1;html=1;" parent="1" vertex="1">
          <mxGeometry x="1285" y="1015" width="225" height="210" as="geometry">
            <mxRectangle x="430" y="360" width="80" height="30" as="alternateBounds" />
          </mxGeometry>
        </mxCell>
        <mxCell id="PksQQbky92vX9yiBjoE5-2" value="" style="shape=tableRow;horizontal=0;startSize=0;swimlaneHead=0;swimlaneBody=0;fillColor=none;collapsible=0;dropTarget=0;points=[[0,0.5],[1,0.5]];portConstraint=eastwest;top=0;left=0;right=0;bottom=1;" parent="PksQQbky92vX9yiBjoE5-1" vertex="1">
          <mxGeometry y="30" width="225" height="30" as="geometry" />
        </mxCell>
        <mxCell id="PksQQbky92vX9yiBjoE5-3" value="PK" style="shape=partialRectangle;connectable=0;fillColor=none;top=0;left=0;bottom=0;right=0;fontStyle=1;overflow=hidden;whiteSpace=wrap;html=1;" parent="PksQQbky92vX9yiBjoE5-2" vertex="1">
          <mxGeometry width="65" height="30" as="geometry">
            <mxRectangle width="65" height="30" as="alternateBounds" />
          </mxGeometry>
        </mxCell>
        <mxCell id="PksQQbky92vX9yiBjoE5-4" value="Order ID" style="shape=partialRectangle;connectable=0;fillColor=none;top=0;left=0;bottom=0;right=0;align=left;spacingLeft=6;fontStyle=5;overflow=hidden;whiteSpace=wrap;html=1;" parent="PksQQbky92vX9yiBjoE5-2" vertex="1">
          <mxGeometry x="65" width="160" height="30" as="geometry">
            <mxRectangle width="160" height="30" as="alternateBounds" />
          </mxGeometry>
        </mxCell>
        <mxCell id="qNud3ZH2w9W95GEun9CB-361" value="" style="shape=tableRow;horizontal=0;startSize=0;swimlaneHead=0;swimlaneBody=0;fillColor=none;collapsible=0;dropTarget=0;points=[[0,0.5],[1,0.5]];portConstraint=eastwest;top=0;left=0;right=0;bottom=1;" parent="PksQQbky92vX9yiBjoE5-1" vertex="1">
          <mxGeometry y="60" width="225" height="30" as="geometry" />
        </mxCell>
        <mxCell id="qNud3ZH2w9W95GEun9CB-362" value="FK" style="shape=partialRectangle;connectable=0;fillColor=none;top=0;left=0;bottom=0;right=0;fontStyle=1;overflow=hidden;whiteSpace=wrap;html=1;" parent="qNud3ZH2w9W95GEun9CB-361" vertex="1">
          <mxGeometry width="65" height="30" as="geometry">
            <mxRectangle width="65" height="30" as="alternateBounds" />
          </mxGeometry>
        </mxCell>
        <mxCell id="qNud3ZH2w9W95GEun9CB-363" value="Product ID" style="shape=partialRectangle;connectable=0;fillColor=none;top=0;left=0;bottom=0;right=0;align=left;spacingLeft=6;fontStyle=5;overflow=hidden;whiteSpace=wrap;html=1;" parent="qNud3ZH2w9W95GEun9CB-361" vertex="1">
          <mxGeometry x="65" width="160" height="30" as="geometry">
            <mxRectangle width="160" height="30" as="alternateBounds" />
          </mxGeometry>
        </mxCell>
        <mxCell id="qNud3ZH2w9W95GEun9CB-208" value="" style="shape=tableRow;horizontal=0;startSize=0;swimlaneHead=0;swimlaneBody=0;fillColor=none;collapsible=0;dropTarget=0;points=[[0,0.5],[1,0.5]];portConstraint=eastwest;top=0;left=0;right=0;bottom=0;" parent="PksQQbky92vX9yiBjoE5-1" vertex="1">
          <mxGeometry y="90" width="225" height="30" as="geometry" />
        </mxCell>
        <mxCell id="qNud3ZH2w9W95GEun9CB-209" value="&lt;div&gt;DATE&lt;/div&gt;" style="shape=partialRectangle;connectable=0;fillColor=none;top=0;left=0;bottom=0;right=0;editable=1;overflow=hidden;whiteSpace=wrap;html=1;" parent="qNud3ZH2w9W95GEun9CB-208" vertex="1">
          <mxGeometry width="65" height="30" as="geometry">
            <mxRectangle width="65" height="30" as="alternateBounds" />
          </mxGeometry>
        </mxCell>
        <mxCell id="qNud3ZH2w9W95GEun9CB-210" value="Order Date" style="shape=partialRectangle;connectable=0;fillColor=none;top=0;left=0;bottom=0;right=0;align=left;spacingLeft=6;overflow=hidden;whiteSpace=wrap;html=1;" parent="qNud3ZH2w9W95GEun9CB-208" vertex="1">
          <mxGeometry x="65" width="160" height="30" as="geometry">
            <mxRectangle width="160" height="30" as="alternateBounds" />
          </mxGeometry>
        </mxCell>
        <mxCell id="qNud3ZH2w9W95GEun9CB-76" value="" style="shape=tableRow;horizontal=0;startSize=0;swimlaneHead=0;swimlaneBody=0;fillColor=none;collapsible=0;dropTarget=0;points=[[0,0.5],[1,0.5]];portConstraint=eastwest;top=0;left=0;right=0;bottom=0;" parent="PksQQbky92vX9yiBjoE5-1" vertex="1">
          <mxGeometry y="120" width="225" height="30" as="geometry" />
        </mxCell>
        <mxCell id="qNud3ZH2w9W95GEun9CB-77" value="ALPHNUM" style="shape=partialRectangle;connectable=0;fillColor=none;top=0;left=0;bottom=0;right=0;editable=1;overflow=hidden;whiteSpace=wrap;html=1;" parent="qNud3ZH2w9W95GEun9CB-76" vertex="1">
          <mxGeometry width="65" height="30" as="geometry">
            <mxRectangle width="65" height="30" as="alternateBounds" />
          </mxGeometry>
        </mxCell>
        <mxCell id="qNud3ZH2w9W95GEun9CB-78" value="Order Supplier" style="shape=partialRectangle;connectable=0;fillColor=none;top=0;left=0;bottom=0;right=0;align=left;spacingLeft=6;overflow=hidden;whiteSpace=wrap;html=1;" parent="qNud3ZH2w9W95GEun9CB-76" vertex="1">
          <mxGeometry x="65" width="160" height="30" as="geometry">
            <mxRectangle width="160" height="30" as="alternateBounds" />
          </mxGeometry>
        </mxCell>
        <mxCell id="qNud3ZH2w9W95GEun9CB-73" value="" style="shape=tableRow;horizontal=0;startSize=0;swimlaneHead=0;swimlaneBody=0;fillColor=none;collapsible=0;dropTarget=0;points=[[0,0.5],[1,0.5]];portConstraint=eastwest;top=0;left=0;right=0;bottom=0;" parent="PksQQbky92vX9yiBjoE5-1" vertex="1">
          <mxGeometry y="150" width="225" height="30" as="geometry" />
        </mxCell>
        <mxCell id="qNud3ZH2w9W95GEun9CB-74" value="INT" style="shape=partialRectangle;connectable=0;fillColor=none;top=0;left=0;bottom=0;right=0;editable=1;overflow=hidden;whiteSpace=wrap;html=1;" parent="qNud3ZH2w9W95GEun9CB-73" vertex="1">
          <mxGeometry width="65" height="30" as="geometry">
            <mxRectangle width="65" height="30" as="alternateBounds" />
          </mxGeometry>
        </mxCell>
        <mxCell id="qNud3ZH2w9W95GEun9CB-75" value="Order Quantity" style="shape=partialRectangle;connectable=0;fillColor=none;top=0;left=0;bottom=0;right=0;align=left;spacingLeft=6;overflow=hidden;whiteSpace=wrap;html=1;" parent="qNud3ZH2w9W95GEun9CB-73" vertex="1">
          <mxGeometry x="65" width="160" height="30" as="geometry">
            <mxRectangle width="160" height="30" as="alternateBounds" />
          </mxGeometry>
        </mxCell>
        <mxCell id="qNud3ZH2w9W95GEun9CB-396" value="" style="shape=tableRow;horizontal=0;startSize=0;swimlaneHead=0;swimlaneBody=0;fillColor=none;collapsible=0;dropTarget=0;points=[[0,0.5],[1,0.5]];portConstraint=eastwest;top=0;left=0;right=0;bottom=0;" parent="PksQQbky92vX9yiBjoE5-1" vertex="1">
          <mxGeometry y="180" width="225" height="30" as="geometry" />
        </mxCell>
        <mxCell id="qNud3ZH2w9W95GEun9CB-397" value="INT" style="shape=partialRectangle;connectable=0;fillColor=none;top=0;left=0;bottom=0;right=0;editable=1;overflow=hidden;whiteSpace=wrap;html=1;" parent="qNud3ZH2w9W95GEun9CB-396" vertex="1">
          <mxGeometry width="65" height="30" as="geometry">
            <mxRectangle width="65" height="30" as="alternateBounds" />
          </mxGeometry>
        </mxCell>
        <mxCell id="qNud3ZH2w9W95GEun9CB-398" value="Product Quantity per Order" style="shape=partialRectangle;connectable=0;fillColor=none;top=0;left=0;bottom=0;right=0;align=left;spacingLeft=6;overflow=hidden;whiteSpace=wrap;html=1;" parent="qNud3ZH2w9W95GEun9CB-396" vertex="1">
          <mxGeometry x="65" width="160" height="30" as="geometry">
            <mxRectangle width="160" height="30" as="alternateBounds" />
          </mxGeometry>
        </mxCell>
        <mxCell id="qNud3ZH2w9W95GEun9CB-207" style="edgeStyle=orthogonalEdgeStyle;rounded=0;orthogonalLoop=1;jettySize=auto;html=1;entryX=0;entryY=0.5;entryDx=0;entryDy=0;shape=link;dashed=1;" parent="1" source="qNud3ZH2w9W95GEun9CB-206" target="PksQQbky92vX9yiBjoE5-2" edge="1">
          <mxGeometry relative="1" as="geometry" />
        </mxCell>
        <mxCell id="qNud3ZH2w9W95GEun9CB-206" value="YYYY0000" style="whiteSpace=wrap;html=1;align=center;dashed=1;" parent="1" vertex="1">
          <mxGeometry x="1115" y="1040" width="100" height="40" as="geometry" />
        </mxCell>
        <mxCell id="qNud3ZH2w9W95GEun9CB-224" value="Dim_Products" style="shape=table;startSize=30;container=1;collapsible=1;childLayout=tableLayout;fixedRows=1;rowLines=0;fontStyle=1;align=center;resizeLast=1;html=1;" parent="1" vertex="1">
          <mxGeometry x="1665" y="1045" width="220" height="330" as="geometry" />
        </mxCell>
        <mxCell id="qNud3ZH2w9W95GEun9CB-225" value="" style="shape=tableRow;horizontal=0;startSize=0;swimlaneHead=0;swimlaneBody=0;fillColor=none;collapsible=0;dropTarget=0;points=[[0,0.5],[1,0.5]];portConstraint=eastwest;top=0;left=0;right=0;bottom=1;" parent="qNud3ZH2w9W95GEun9CB-224" vertex="1">
          <mxGeometry y="30" width="220" height="30" as="geometry" />
        </mxCell>
        <mxCell id="qNud3ZH2w9W95GEun9CB-226" value="PK" style="shape=partialRectangle;connectable=0;fillColor=none;top=0;left=0;bottom=0;right=0;fontStyle=1;overflow=hidden;whiteSpace=wrap;html=1;" parent="qNud3ZH2w9W95GEun9CB-225" vertex="1">
          <mxGeometry width="70" height="30" as="geometry">
            <mxRectangle width="70" height="30" as="alternateBounds" />
          </mxGeometry>
        </mxCell>
        <mxCell id="qNud3ZH2w9W95GEun9CB-227" value="Product ID" style="shape=partialRectangle;connectable=0;fillColor=none;top=0;left=0;bottom=0;right=0;align=left;spacingLeft=6;fontStyle=5;overflow=hidden;whiteSpace=wrap;html=1;" parent="qNud3ZH2w9W95GEun9CB-225" vertex="1">
          <mxGeometry x="70" width="150" height="30" as="geometry">
            <mxRectangle width="150" height="30" as="alternateBounds" />
          </mxGeometry>
        </mxCell>
        <mxCell id="qNud3ZH2w9W95GEun9CB-261" value="" style="shape=tableRow;horizontal=0;startSize=0;swimlaneHead=0;swimlaneBody=0;fillColor=none;collapsible=0;dropTarget=0;points=[[0,0.5],[1,0.5]];portConstraint=eastwest;top=0;left=0;right=0;bottom=0;" parent="qNud3ZH2w9W95GEun9CB-224" vertex="1">
          <mxGeometry y="60" width="220" height="30" as="geometry" />
        </mxCell>
        <mxCell id="qNud3ZH2w9W95GEun9CB-262" value="VARCHAR" style="shape=partialRectangle;connectable=0;fillColor=none;top=0;left=0;bottom=0;right=0;editable=1;overflow=hidden;whiteSpace=wrap;html=1;" parent="qNud3ZH2w9W95GEun9CB-261" vertex="1">
          <mxGeometry width="70" height="30" as="geometry">
            <mxRectangle width="70" height="30" as="alternateBounds" />
          </mxGeometry>
        </mxCell>
        <mxCell id="qNud3ZH2w9W95GEun9CB-263" value="Product Key" style="shape=partialRectangle;connectable=0;fillColor=none;top=0;left=0;bottom=0;right=0;align=left;spacingLeft=6;overflow=hidden;whiteSpace=wrap;html=1;" parent="qNud3ZH2w9W95GEun9CB-261" vertex="1">
          <mxGeometry x="70" width="150" height="30" as="geometry">
            <mxRectangle width="150" height="30" as="alternateBounds" />
          </mxGeometry>
        </mxCell>
        <mxCell id="qNud3ZH2w9W95GEun9CB-318" value="" style="shape=tableRow;horizontal=0;startSize=0;swimlaneHead=0;swimlaneBody=0;fillColor=none;collapsible=0;dropTarget=0;points=[[0,0.5],[1,0.5]];portConstraint=eastwest;top=0;left=0;right=0;bottom=0;" parent="qNud3ZH2w9W95GEun9CB-224" vertex="1">
          <mxGeometry y="90" width="220" height="30" as="geometry" />
        </mxCell>
        <mxCell id="qNud3ZH2w9W95GEun9CB-319" value="TEXT" style="shape=partialRectangle;connectable=0;fillColor=none;top=0;left=0;bottom=0;right=0;editable=1;overflow=hidden;whiteSpace=wrap;html=1;" parent="qNud3ZH2w9W95GEun9CB-318" vertex="1">
          <mxGeometry width="70" height="30" as="geometry">
            <mxRectangle width="70" height="30" as="alternateBounds" />
          </mxGeometry>
        </mxCell>
        <mxCell id="qNud3ZH2w9W95GEun9CB-320" value="Product Category" style="shape=partialRectangle;connectable=0;fillColor=none;top=0;left=0;bottom=0;right=0;align=left;spacingLeft=6;overflow=hidden;whiteSpace=wrap;html=1;" parent="qNud3ZH2w9W95GEun9CB-318" vertex="1">
          <mxGeometry x="70" width="150" height="30" as="geometry">
            <mxRectangle width="150" height="30" as="alternateBounds" />
          </mxGeometry>
        </mxCell>
        <mxCell id="qNud3ZH2w9W95GEun9CB-228" value="" style="shape=tableRow;horizontal=0;startSize=0;swimlaneHead=0;swimlaneBody=0;fillColor=none;collapsible=0;dropTarget=0;points=[[0,0.5],[1,0.5]];portConstraint=eastwest;top=0;left=0;right=0;bottom=0;" parent="qNud3ZH2w9W95GEun9CB-224" vertex="1">
          <mxGeometry y="120" width="220" height="30" as="geometry" />
        </mxCell>
        <mxCell id="qNud3ZH2w9W95GEun9CB-229" value="TEXT" style="shape=partialRectangle;connectable=0;fillColor=none;top=0;left=0;bottom=0;right=0;editable=1;overflow=hidden;whiteSpace=wrap;html=1;" parent="qNud3ZH2w9W95GEun9CB-228" vertex="1">
          <mxGeometry width="70" height="30" as="geometry">
            <mxRectangle width="70" height="30" as="alternateBounds" />
          </mxGeometry>
        </mxCell>
        <mxCell id="qNud3ZH2w9W95GEun9CB-230" value="Product Name" style="shape=partialRectangle;connectable=0;fillColor=none;top=0;left=0;bottom=0;right=0;align=left;spacingLeft=6;overflow=hidden;whiteSpace=wrap;html=1;" parent="qNud3ZH2w9W95GEun9CB-228" vertex="1">
          <mxGeometry x="70" width="150" height="30" as="geometry">
            <mxRectangle width="150" height="30" as="alternateBounds" />
          </mxGeometry>
        </mxCell>
        <mxCell id="qNud3ZH2w9W95GEun9CB-270" value="" style="shape=tableRow;horizontal=0;startSize=0;swimlaneHead=0;swimlaneBody=0;fillColor=none;collapsible=0;dropTarget=0;points=[[0,0.5],[1,0.5]];portConstraint=eastwest;top=0;left=0;right=0;bottom=0;" parent="qNud3ZH2w9W95GEun9CB-224" vertex="1">
          <mxGeometry y="150" width="220" height="30" as="geometry" />
        </mxCell>
        <mxCell id="qNud3ZH2w9W95GEun9CB-271" value="ALPHNUM" style="shape=partialRectangle;connectable=0;fillColor=none;top=0;left=0;bottom=0;right=0;editable=1;overflow=hidden;whiteSpace=wrap;html=1;" parent="qNud3ZH2w9W95GEun9CB-270" vertex="1">
          <mxGeometry width="70" height="30" as="geometry">
            <mxRectangle width="70" height="30" as="alternateBounds" />
          </mxGeometry>
        </mxCell>
        <mxCell id="qNud3ZH2w9W95GEun9CB-272" value="Product Size" style="shape=partialRectangle;connectable=0;fillColor=none;top=0;left=0;bottom=0;right=0;align=left;spacingLeft=6;overflow=hidden;whiteSpace=wrap;html=1;" parent="qNud3ZH2w9W95GEun9CB-270" vertex="1">
          <mxGeometry x="70" width="150" height="30" as="geometry">
            <mxRectangle width="150" height="30" as="alternateBounds" />
          </mxGeometry>
        </mxCell>
        <mxCell id="qNud3ZH2w9W95GEun9CB-264" value="" style="shape=tableRow;horizontal=0;startSize=0;swimlaneHead=0;swimlaneBody=0;fillColor=none;collapsible=0;dropTarget=0;points=[[0,0.5],[1,0.5]];portConstraint=eastwest;top=0;left=0;right=0;bottom=0;" parent="qNud3ZH2w9W95GEun9CB-224" vertex="1">
          <mxGeometry y="180" width="220" height="30" as="geometry" />
        </mxCell>
        <mxCell id="qNud3ZH2w9W95GEun9CB-265" value="ALPHNUM" style="shape=partialRectangle;connectable=0;fillColor=none;top=0;left=0;bottom=0;right=0;editable=1;overflow=hidden;whiteSpace=wrap;html=1;" parent="qNud3ZH2w9W95GEun9CB-264" vertex="1">
          <mxGeometry width="70" height="30" as="geometry">
            <mxRectangle width="70" height="30" as="alternateBounds" />
          </mxGeometry>
        </mxCell>
        <mxCell id="qNud3ZH2w9W95GEun9CB-266" value="Product Brand" style="shape=partialRectangle;connectable=0;fillColor=none;top=0;left=0;bottom=0;right=0;align=left;spacingLeft=6;overflow=hidden;whiteSpace=wrap;html=1;" parent="qNud3ZH2w9W95GEun9CB-264" vertex="1">
          <mxGeometry x="70" width="150" height="30" as="geometry">
            <mxRectangle width="150" height="30" as="alternateBounds" />
          </mxGeometry>
        </mxCell>
        <mxCell id="qNud3ZH2w9W95GEun9CB-267" value="" style="shape=tableRow;horizontal=0;startSize=0;swimlaneHead=0;swimlaneBody=0;fillColor=none;collapsible=0;dropTarget=0;points=[[0,0.5],[1,0.5]];portConstraint=eastwest;top=0;left=0;right=0;bottom=0;" parent="qNud3ZH2w9W95GEun9CB-224" vertex="1">
          <mxGeometry y="210" width="220" height="30" as="geometry" />
        </mxCell>
        <mxCell id="qNud3ZH2w9W95GEun9CB-268" value="ALPHNUM" style="shape=partialRectangle;connectable=0;fillColor=none;top=0;left=0;bottom=0;right=0;editable=1;overflow=hidden;whiteSpace=wrap;html=1;" parent="qNud3ZH2w9W95GEun9CB-267" vertex="1">
          <mxGeometry width="70" height="30" as="geometry">
            <mxRectangle width="70" height="30" as="alternateBounds" />
          </mxGeometry>
        </mxCell>
        <mxCell id="qNud3ZH2w9W95GEun9CB-269" value="Product Model" style="shape=partialRectangle;connectable=0;fillColor=none;top=0;left=0;bottom=0;right=0;align=left;spacingLeft=6;overflow=hidden;whiteSpace=wrap;html=1;" parent="qNud3ZH2w9W95GEun9CB-267" vertex="1">
          <mxGeometry x="70" width="150" height="30" as="geometry">
            <mxRectangle width="150" height="30" as="alternateBounds" />
          </mxGeometry>
        </mxCell>
        <mxCell id="qNud3ZH2w9W95GEun9CB-282" value="" style="shape=tableRow;horizontal=0;startSize=0;swimlaneHead=0;swimlaneBody=0;fillColor=none;collapsible=0;dropTarget=0;points=[[0,0.5],[1,0.5]];portConstraint=eastwest;top=0;left=0;right=0;bottom=0;" parent="qNud3ZH2w9W95GEun9CB-224" vertex="1">
          <mxGeometry y="240" width="220" height="30" as="geometry" />
        </mxCell>
        <mxCell id="qNud3ZH2w9W95GEun9CB-283" value="ALPHNUM" style="shape=partialRectangle;connectable=0;fillColor=none;top=0;left=0;bottom=0;right=0;editable=1;overflow=hidden;whiteSpace=wrap;html=1;" parent="qNud3ZH2w9W95GEun9CB-282" vertex="1">
          <mxGeometry width="70" height="30" as="geometry">
            <mxRectangle width="70" height="30" as="alternateBounds" />
          </mxGeometry>
        </mxCell>
        <mxCell id="qNud3ZH2w9W95GEun9CB-284" value="Product Hyperlink" style="shape=partialRectangle;connectable=0;fillColor=none;top=0;left=0;bottom=0;right=0;align=left;spacingLeft=6;overflow=hidden;whiteSpace=wrap;html=1;" parent="qNud3ZH2w9W95GEun9CB-282" vertex="1">
          <mxGeometry x="70" width="150" height="30" as="geometry">
            <mxRectangle width="150" height="30" as="alternateBounds" />
          </mxGeometry>
        </mxCell>
        <mxCell id="qNud3ZH2w9W95GEun9CB-279" value="" style="shape=tableRow;horizontal=0;startSize=0;swimlaneHead=0;swimlaneBody=0;fillColor=none;collapsible=0;dropTarget=0;points=[[0,0.5],[1,0.5]];portConstraint=eastwest;top=0;left=0;right=0;bottom=0;" parent="qNud3ZH2w9W95GEun9CB-224" vertex="1">
          <mxGeometry y="270" width="220" height="30" as="geometry" />
        </mxCell>
        <mxCell id="qNud3ZH2w9W95GEun9CB-280" value="INT" style="shape=partialRectangle;connectable=0;fillColor=none;top=0;left=0;bottom=0;right=0;editable=1;overflow=hidden;whiteSpace=wrap;html=1;" parent="qNud3ZH2w9W95GEun9CB-279" vertex="1">
          <mxGeometry width="70" height="30" as="geometry">
            <mxRectangle width="70" height="30" as="alternateBounds" />
          </mxGeometry>
        </mxCell>
        <mxCell id="qNud3ZH2w9W95GEun9CB-281" value="Product Total Quantity" style="shape=partialRectangle;connectable=0;fillColor=none;top=0;left=0;bottom=0;right=0;align=left;spacingLeft=6;overflow=hidden;whiteSpace=wrap;html=1;" parent="qNud3ZH2w9W95GEun9CB-279" vertex="1">
          <mxGeometry x="70" width="150" height="30" as="geometry">
            <mxRectangle width="150" height="30" as="alternateBounds" />
          </mxGeometry>
        </mxCell>
        <mxCell id="qNud3ZH2w9W95GEun9CB-276" value="" style="shape=tableRow;horizontal=0;startSize=0;swimlaneHead=0;swimlaneBody=0;fillColor=none;collapsible=0;dropTarget=0;points=[[0,0.5],[1,0.5]];portConstraint=eastwest;top=0;left=0;right=0;bottom=0;" parent="qNud3ZH2w9W95GEun9CB-224" vertex="1">
          <mxGeometry y="300" width="220" height="30" as="geometry" />
        </mxCell>
        <mxCell id="qNud3ZH2w9W95GEun9CB-277" value="FLOAT" style="shape=partialRectangle;connectable=0;fillColor=none;top=0;left=0;bottom=0;right=0;editable=1;overflow=hidden;whiteSpace=wrap;html=1;" parent="qNud3ZH2w9W95GEun9CB-276" vertex="1">
          <mxGeometry width="70" height="30" as="geometry">
            <mxRectangle width="70" height="30" as="alternateBounds" />
          </mxGeometry>
        </mxCell>
        <mxCell id="qNud3ZH2w9W95GEun9CB-278" value="Average Product Price" style="shape=partialRectangle;connectable=0;fillColor=none;top=0;left=0;bottom=0;right=0;align=left;spacingLeft=6;overflow=hidden;whiteSpace=wrap;html=1;" parent="qNud3ZH2w9W95GEun9CB-276" vertex="1">
          <mxGeometry x="70" width="150" height="30" as="geometry">
            <mxRectangle width="150" height="30" as="alternateBounds" />
          </mxGeometry>
        </mxCell>
        <mxCell id="qNud3ZH2w9W95GEun9CB-529" value="Purchase Requests" style="shape=table;startSize=30;container=1;collapsible=1;childLayout=tableLayout;fixedRows=1;rowLines=0;fontStyle=1;align=center;resizeLast=1;html=1;" parent="1" vertex="1">
          <mxGeometry x="750" y="1075" width="220" height="420" as="geometry" />
        </mxCell>
        <mxCell id="qNud3ZH2w9W95GEun9CB-530" value="" style="shape=tableRow;horizontal=0;startSize=0;swimlaneHead=0;swimlaneBody=0;fillColor=none;collapsible=0;dropTarget=0;points=[[0,0.5],[1,0.5]];portConstraint=eastwest;top=0;left=0;right=0;bottom=1;" parent="qNud3ZH2w9W95GEun9CB-529" vertex="1">
          <mxGeometry y="30" width="220" height="30" as="geometry" />
        </mxCell>
        <mxCell id="qNud3ZH2w9W95GEun9CB-531" value="PK" style="shape=partialRectangle;connectable=0;fillColor=none;top=0;left=0;bottom=0;right=0;fontStyle=1;overflow=hidden;whiteSpace=wrap;html=1;" parent="qNud3ZH2w9W95GEun9CB-530" vertex="1">
          <mxGeometry width="70" height="30" as="geometry">
            <mxRectangle width="70" height="30" as="alternateBounds" />
          </mxGeometry>
        </mxCell>
        <mxCell id="qNud3ZH2w9W95GEun9CB-532" value="Request ID" style="shape=partialRectangle;connectable=0;fillColor=none;top=0;left=0;bottom=0;right=0;align=left;spacingLeft=6;fontStyle=5;overflow=hidden;whiteSpace=wrap;html=1;" parent="qNud3ZH2w9W95GEun9CB-530" vertex="1">
          <mxGeometry x="70" width="150" height="30" as="geometry">
            <mxRectangle width="150" height="30" as="alternateBounds" />
          </mxGeometry>
        </mxCell>
        <mxCell id="qNud3ZH2w9W95GEun9CB-536" value="" style="shape=tableRow;horizontal=0;startSize=0;swimlaneHead=0;swimlaneBody=0;fillColor=none;collapsible=0;dropTarget=0;points=[[0,0.5],[1,0.5]];portConstraint=eastwest;top=0;left=0;right=0;bottom=0;" parent="qNud3ZH2w9W95GEun9CB-529" vertex="1">
          <mxGeometry y="60" width="220" height="30" as="geometry" />
        </mxCell>
        <mxCell id="qNud3ZH2w9W95GEun9CB-537" value="DATE" style="shape=partialRectangle;connectable=0;fillColor=none;top=0;left=0;bottom=0;right=0;editable=1;overflow=hidden;whiteSpace=wrap;html=1;" parent="qNud3ZH2w9W95GEun9CB-536" vertex="1">
          <mxGeometry width="70" height="30" as="geometry">
            <mxRectangle width="70" height="30" as="alternateBounds" />
          </mxGeometry>
        </mxCell>
        <mxCell id="qNud3ZH2w9W95GEun9CB-538" value="Request Date" style="shape=partialRectangle;connectable=0;fillColor=none;top=0;left=0;bottom=0;right=0;align=left;spacingLeft=6;overflow=hidden;whiteSpace=wrap;html=1;" parent="qNud3ZH2w9W95GEun9CB-536" vertex="1">
          <mxGeometry x="70" width="150" height="30" as="geometry">
            <mxRectangle width="150" height="30" as="alternateBounds" />
          </mxGeometry>
        </mxCell>
        <mxCell id="qNud3ZH2w9W95GEun9CB-554" value="" style="shape=tableRow;horizontal=0;startSize=0;swimlaneHead=0;swimlaneBody=0;fillColor=none;collapsible=0;dropTarget=0;points=[[0,0.5],[1,0.5]];portConstraint=eastwest;top=0;left=0;right=0;bottom=0;" parent="qNud3ZH2w9W95GEun9CB-529" vertex="1">
          <mxGeometry y="90" width="220" height="30" as="geometry" />
        </mxCell>
        <mxCell id="qNud3ZH2w9W95GEun9CB-555" value="TEXT" style="shape=partialRectangle;connectable=0;fillColor=none;top=0;left=0;bottom=0;right=0;editable=1;overflow=hidden;whiteSpace=wrap;html=1;" parent="qNud3ZH2w9W95GEun9CB-554" vertex="1">
          <mxGeometry width="70" height="30" as="geometry">
            <mxRectangle width="70" height="30" as="alternateBounds" />
          </mxGeometry>
        </mxCell>
        <mxCell id="qNud3ZH2w9W95GEun9CB-556" value="Request By" style="shape=partialRectangle;connectable=0;fillColor=none;top=0;left=0;bottom=0;right=0;align=left;spacingLeft=6;overflow=hidden;whiteSpace=wrap;html=1;" parent="qNud3ZH2w9W95GEun9CB-554" vertex="1">
          <mxGeometry x="70" width="150" height="30" as="geometry">
            <mxRectangle width="150" height="30" as="alternateBounds" />
          </mxGeometry>
        </mxCell>
        <mxCell id="qNud3ZH2w9W95GEun9CB-551" value="" style="shape=tableRow;horizontal=0;startSize=0;swimlaneHead=0;swimlaneBody=0;fillColor=none;collapsible=0;dropTarget=0;points=[[0,0.5],[1,0.5]];portConstraint=eastwest;top=0;left=0;right=0;bottom=0;" parent="qNud3ZH2w9W95GEun9CB-529" vertex="1">
          <mxGeometry y="120" width="220" height="30" as="geometry" />
        </mxCell>
        <mxCell id="qNud3ZH2w9W95GEun9CB-552" value="ALPHNUM" style="shape=partialRectangle;connectable=0;fillColor=none;top=0;left=0;bottom=0;right=0;editable=1;overflow=hidden;whiteSpace=wrap;html=1;" parent="qNud3ZH2w9W95GEun9CB-551" vertex="1">
          <mxGeometry width="70" height="30" as="geometry">
            <mxRectangle width="70" height="30" as="alternateBounds" />
          </mxGeometry>
        </mxCell>
        <mxCell id="qNud3ZH2w9W95GEun9CB-553" value="Product Hyperlink" style="shape=partialRectangle;connectable=0;fillColor=none;top=0;left=0;bottom=0;right=0;align=left;spacingLeft=6;overflow=hidden;whiteSpace=wrap;html=1;" parent="qNud3ZH2w9W95GEun9CB-551" vertex="1">
          <mxGeometry x="70" width="150" height="30" as="geometry">
            <mxRectangle width="150" height="30" as="alternateBounds" />
          </mxGeometry>
        </mxCell>
        <mxCell id="qNud3ZH2w9W95GEun9CB-574" value="" style="shape=tableRow;horizontal=0;startSize=0;swimlaneHead=0;swimlaneBody=0;fillColor=none;collapsible=0;dropTarget=0;points=[[0,0.5],[1,0.5]];portConstraint=eastwest;top=0;left=0;right=0;bottom=0;" parent="qNud3ZH2w9W95GEun9CB-529" vertex="1">
          <mxGeometry y="150" width="220" height="30" as="geometry" />
        </mxCell>
        <mxCell id="qNud3ZH2w9W95GEun9CB-575" value="INT" style="shape=partialRectangle;connectable=0;fillColor=none;top=0;left=0;bottom=0;right=0;editable=1;overflow=hidden;whiteSpace=wrap;html=1;" parent="qNud3ZH2w9W95GEun9CB-574" vertex="1">
          <mxGeometry width="70" height="30" as="geometry">
            <mxRectangle width="70" height="30" as="alternateBounds" />
          </mxGeometry>
        </mxCell>
        <mxCell id="qNud3ZH2w9W95GEun9CB-576" value="Quantity Requested" style="shape=partialRectangle;connectable=0;fillColor=none;top=0;left=0;bottom=0;right=0;align=left;spacingLeft=6;overflow=hidden;whiteSpace=wrap;html=1;" parent="qNud3ZH2w9W95GEun9CB-574" vertex="1">
          <mxGeometry x="70" width="150" height="30" as="geometry">
            <mxRectangle width="150" height="30" as="alternateBounds" />
          </mxGeometry>
        </mxCell>
        <mxCell id="qNud3ZH2w9W95GEun9CB-566" value="" style="shape=tableRow;horizontal=0;startSize=0;swimlaneHead=0;swimlaneBody=0;fillColor=none;collapsible=0;dropTarget=0;points=[[0,0.5],[1,0.5]];portConstraint=eastwest;top=0;left=0;right=0;bottom=0;" parent="qNud3ZH2w9W95GEun9CB-529" vertex="1">
          <mxGeometry y="180" width="220" height="30" as="geometry" />
        </mxCell>
        <mxCell id="qNud3ZH2w9W95GEun9CB-567" value="TEXT" style="shape=partialRectangle;connectable=0;fillColor=none;top=0;left=0;bottom=0;right=0;editable=1;overflow=hidden;whiteSpace=wrap;html=1;" parent="qNud3ZH2w9W95GEun9CB-566" vertex="1">
          <mxGeometry width="70" height="30" as="geometry">
            <mxRectangle width="70" height="30" as="alternateBounds" />
          </mxGeometry>
        </mxCell>
        <mxCell id="qNud3ZH2w9W95GEun9CB-568" value="Product Category" style="shape=partialRectangle;connectable=0;fillColor=none;top=0;left=0;bottom=0;right=0;align=left;spacingLeft=6;overflow=hidden;whiteSpace=wrap;html=1;" parent="qNud3ZH2w9W95GEun9CB-566" vertex="1">
          <mxGeometry x="70" width="150" height="30" as="geometry">
            <mxRectangle width="150" height="30" as="alternateBounds" />
          </mxGeometry>
        </mxCell>
        <mxCell id="qNud3ZH2w9W95GEun9CB-539" value="" style="shape=tableRow;horizontal=0;startSize=0;swimlaneHead=0;swimlaneBody=0;fillColor=none;collapsible=0;dropTarget=0;points=[[0,0.5],[1,0.5]];portConstraint=eastwest;top=0;left=0;right=0;bottom=0;" parent="qNud3ZH2w9W95GEun9CB-529" vertex="1">
          <mxGeometry y="210" width="220" height="30" as="geometry" />
        </mxCell>
        <mxCell id="qNud3ZH2w9W95GEun9CB-540" value="TEXT" style="shape=partialRectangle;connectable=0;fillColor=none;top=0;left=0;bottom=0;right=0;editable=1;overflow=hidden;whiteSpace=wrap;html=1;" parent="qNud3ZH2w9W95GEun9CB-539" vertex="1">
          <mxGeometry width="70" height="30" as="geometry">
            <mxRectangle width="70" height="30" as="alternateBounds" />
          </mxGeometry>
        </mxCell>
        <mxCell id="qNud3ZH2w9W95GEun9CB-541" value="Product Name" style="shape=partialRectangle;connectable=0;fillColor=none;top=0;left=0;bottom=0;right=0;align=left;spacingLeft=6;overflow=hidden;whiteSpace=wrap;html=1;" parent="qNud3ZH2w9W95GEun9CB-539" vertex="1">
          <mxGeometry x="70" width="150" height="30" as="geometry">
            <mxRectangle width="150" height="30" as="alternateBounds" />
          </mxGeometry>
        </mxCell>
        <mxCell id="qNud3ZH2w9W95GEun9CB-545" value="" style="shape=tableRow;horizontal=0;startSize=0;swimlaneHead=0;swimlaneBody=0;fillColor=none;collapsible=0;dropTarget=0;points=[[0,0.5],[1,0.5]];portConstraint=eastwest;top=0;left=0;right=0;bottom=0;" parent="qNud3ZH2w9W95GEun9CB-529" vertex="1">
          <mxGeometry y="240" width="220" height="30" as="geometry" />
        </mxCell>
        <mxCell id="qNud3ZH2w9W95GEun9CB-546" value="ALPHNUM" style="shape=partialRectangle;connectable=0;fillColor=none;top=0;left=0;bottom=0;right=0;editable=1;overflow=hidden;whiteSpace=wrap;html=1;" parent="qNud3ZH2w9W95GEun9CB-545" vertex="1">
          <mxGeometry width="70" height="30" as="geometry">
            <mxRectangle width="70" height="30" as="alternateBounds" />
          </mxGeometry>
        </mxCell>
        <mxCell id="qNud3ZH2w9W95GEun9CB-547" value="Product Brand" style="shape=partialRectangle;connectable=0;fillColor=none;top=0;left=0;bottom=0;right=0;align=left;spacingLeft=6;overflow=hidden;whiteSpace=wrap;html=1;" parent="qNud3ZH2w9W95GEun9CB-545" vertex="1">
          <mxGeometry x="70" width="150" height="30" as="geometry">
            <mxRectangle width="150" height="30" as="alternateBounds" />
          </mxGeometry>
        </mxCell>
        <mxCell id="qNud3ZH2w9W95GEun9CB-548" value="" style="shape=tableRow;horizontal=0;startSize=0;swimlaneHead=0;swimlaneBody=0;fillColor=none;collapsible=0;dropTarget=0;points=[[0,0.5],[1,0.5]];portConstraint=eastwest;top=0;left=0;right=0;bottom=0;" parent="qNud3ZH2w9W95GEun9CB-529" vertex="1">
          <mxGeometry y="270" width="220" height="30" as="geometry" />
        </mxCell>
        <mxCell id="qNud3ZH2w9W95GEun9CB-549" value="ALPHNUM" style="shape=partialRectangle;connectable=0;fillColor=none;top=0;left=0;bottom=0;right=0;editable=1;overflow=hidden;whiteSpace=wrap;html=1;" parent="qNud3ZH2w9W95GEun9CB-548" vertex="1">
          <mxGeometry width="70" height="30" as="geometry">
            <mxRectangle width="70" height="30" as="alternateBounds" />
          </mxGeometry>
        </mxCell>
        <mxCell id="qNud3ZH2w9W95GEun9CB-550" value="Product Model" style="shape=partialRectangle;connectable=0;fillColor=none;top=0;left=0;bottom=0;right=0;align=left;spacingLeft=6;overflow=hidden;whiteSpace=wrap;html=1;" parent="qNud3ZH2w9W95GEun9CB-548" vertex="1">
          <mxGeometry x="70" width="150" height="30" as="geometry">
            <mxRectangle width="150" height="30" as="alternateBounds" />
          </mxGeometry>
        </mxCell>
        <mxCell id="qNud3ZH2w9W95GEun9CB-570" value="" style="shape=tableRow;horizontal=0;startSize=0;swimlaneHead=0;swimlaneBody=0;fillColor=none;collapsible=0;dropTarget=0;points=[[0,0.5],[1,0.5]];portConstraint=eastwest;top=0;left=0;right=0;bottom=0;" parent="qNud3ZH2w9W95GEun9CB-529" vertex="1">
          <mxGeometry y="300" width="220" height="30" as="geometry" />
        </mxCell>
        <mxCell id="qNud3ZH2w9W95GEun9CB-571" value="ALPHNUM" style="shape=partialRectangle;connectable=0;fillColor=none;top=0;left=0;bottom=0;right=0;editable=1;overflow=hidden;whiteSpace=wrap;html=1;" parent="qNud3ZH2w9W95GEun9CB-570" vertex="1">
          <mxGeometry width="70" height="30" as="geometry">
            <mxRectangle width="70" height="30" as="alternateBounds" />
          </mxGeometry>
        </mxCell>
        <mxCell id="qNud3ZH2w9W95GEun9CB-572" value="Product Size" style="shape=partialRectangle;connectable=0;fillColor=none;top=0;left=0;bottom=0;right=0;align=left;spacingLeft=6;overflow=hidden;whiteSpace=wrap;html=1;" parent="qNud3ZH2w9W95GEun9CB-570" vertex="1">
          <mxGeometry x="70" width="150" height="30" as="geometry">
            <mxRectangle width="150" height="30" as="alternateBounds" />
          </mxGeometry>
        </mxCell>
        <mxCell id="qNud3ZH2w9W95GEun9CB-557" value="" style="shape=tableRow;horizontal=0;startSize=0;swimlaneHead=0;swimlaneBody=0;fillColor=none;collapsible=0;dropTarget=0;points=[[0,0.5],[1,0.5]];portConstraint=eastwest;top=0;left=0;right=0;bottom=0;" parent="qNud3ZH2w9W95GEun9CB-529" vertex="1">
          <mxGeometry y="330" width="220" height="30" as="geometry" />
        </mxCell>
        <mxCell id="qNud3ZH2w9W95GEun9CB-558" value="FLOAT" style="shape=partialRectangle;connectable=0;fillColor=none;top=0;left=0;bottom=0;right=0;editable=1;overflow=hidden;whiteSpace=wrap;html=1;" parent="qNud3ZH2w9W95GEun9CB-557" vertex="1">
          <mxGeometry width="70" height="30" as="geometry">
            <mxRectangle width="70" height="30" as="alternateBounds" />
          </mxGeometry>
        </mxCell>
        <mxCell id="qNud3ZH2w9W95GEun9CB-559" value="Product Price" style="shape=partialRectangle;connectable=0;fillColor=none;top=0;left=0;bottom=0;right=0;align=left;spacingLeft=6;overflow=hidden;whiteSpace=wrap;html=1;" parent="qNud3ZH2w9W95GEun9CB-557" vertex="1">
          <mxGeometry x="70" width="150" height="30" as="geometry">
            <mxRectangle width="150" height="30" as="alternateBounds" />
          </mxGeometry>
        </mxCell>
        <mxCell id="qNud3ZH2w9W95GEun9CB-563" value="" style="shape=tableRow;horizontal=0;startSize=0;swimlaneHead=0;swimlaneBody=0;fillColor=none;collapsible=0;dropTarget=0;points=[[0,0.5],[1,0.5]];portConstraint=eastwest;top=0;left=0;right=0;bottom=0;" parent="qNud3ZH2w9W95GEun9CB-529" vertex="1">
          <mxGeometry y="360" width="220" height="30" as="geometry" />
        </mxCell>
        <mxCell id="qNud3ZH2w9W95GEun9CB-564" value="TEXT" style="shape=partialRectangle;connectable=0;fillColor=none;top=0;left=0;bottom=0;right=0;editable=1;overflow=hidden;whiteSpace=wrap;html=1;" parent="qNud3ZH2w9W95GEun9CB-563" vertex="1">
          <mxGeometry width="70" height="30" as="geometry">
            <mxRectangle width="70" height="30" as="alternateBounds" />
          </mxGeometry>
        </mxCell>
        <mxCell id="qNud3ZH2w9W95GEun9CB-565" value="Use Case" style="shape=partialRectangle;connectable=0;fillColor=none;top=0;left=0;bottom=0;right=0;align=left;spacingLeft=6;overflow=hidden;whiteSpace=wrap;html=1;" parent="qNud3ZH2w9W95GEun9CB-563" vertex="1">
          <mxGeometry x="70" width="150" height="30" as="geometry">
            <mxRectangle width="150" height="30" as="alternateBounds" />
          </mxGeometry>
        </mxCell>
        <mxCell id="qNud3ZH2w9W95GEun9CB-560" value="" style="shape=tableRow;horizontal=0;startSize=0;swimlaneHead=0;swimlaneBody=0;fillColor=none;collapsible=0;dropTarget=0;points=[[0,0.5],[1,0.5]];portConstraint=eastwest;top=0;left=0;right=0;bottom=0;" parent="qNud3ZH2w9W95GEun9CB-529" vertex="1">
          <mxGeometry y="390" width="220" height="30" as="geometry" />
        </mxCell>
        <mxCell id="qNud3ZH2w9W95GEun9CB-561" value="DATE" style="shape=partialRectangle;connectable=0;fillColor=none;top=0;left=0;bottom=0;right=0;editable=1;overflow=hidden;whiteSpace=wrap;html=1;" parent="qNud3ZH2w9W95GEun9CB-560" vertex="1">
          <mxGeometry width="70" height="30" as="geometry">
            <mxRectangle width="70" height="30" as="alternateBounds" />
          </mxGeometry>
        </mxCell>
        <mxCell id="qNud3ZH2w9W95GEun9CB-562" value="Purchase Date" style="shape=partialRectangle;connectable=0;fillColor=none;top=0;left=0;bottom=0;right=0;align=left;spacingLeft=6;overflow=hidden;whiteSpace=wrap;html=1;" parent="qNud3ZH2w9W95GEun9CB-560" vertex="1">
          <mxGeometry x="70" width="150" height="30" as="geometry">
            <mxRectangle width="150" height="30" as="alternateBounds" />
          </mxGeometry>
        </mxCell>
        <mxCell id="qNud3ZH2w9W95GEun9CB-472" value="Fact_Product Health" style="shape=table;startSize=30;container=1;collapsible=1;childLayout=tableLayout;fixedRows=1;rowLines=0;fontStyle=1;align=center;resizeLast=1;html=1;" parent="1" vertex="1">
          <mxGeometry x="1275" y="1280" width="250" height="330" as="geometry" />
        </mxCell>
        <mxCell id="qNud3ZH2w9W95GEun9CB-473" value="" style="shape=tableRow;horizontal=0;startSize=0;swimlaneHead=0;swimlaneBody=0;fillColor=none;collapsible=0;dropTarget=0;points=[[0,0.5],[1,0.5]];portConstraint=eastwest;top=0;left=0;right=0;bottom=1;" parent="qNud3ZH2w9W95GEun9CB-472" vertex="1">
          <mxGeometry y="30" width="250" height="30" as="geometry" />
        </mxCell>
        <mxCell id="qNud3ZH2w9W95GEun9CB-474" value="PK" style="shape=partialRectangle;connectable=0;fillColor=none;top=0;left=0;bottom=0;right=0;fontStyle=1;overflow=hidden;whiteSpace=wrap;html=1;" parent="qNud3ZH2w9W95GEun9CB-473" vertex="1">
          <mxGeometry width="70" height="30" as="geometry">
            <mxRectangle width="70" height="30" as="alternateBounds" />
          </mxGeometry>
        </mxCell>
        <mxCell id="qNud3ZH2w9W95GEun9CB-475" value="Health ID" style="shape=partialRectangle;connectable=0;fillColor=none;top=0;left=0;bottom=0;right=0;align=left;spacingLeft=6;fontStyle=5;overflow=hidden;whiteSpace=wrap;html=1;" parent="qNud3ZH2w9W95GEun9CB-473" vertex="1">
          <mxGeometry x="70" width="180" height="30" as="geometry">
            <mxRectangle width="180" height="30" as="alternateBounds" />
          </mxGeometry>
        </mxCell>
        <mxCell id="qNud3ZH2w9W95GEun9CB-503" value="" style="shape=tableRow;horizontal=0;startSize=0;swimlaneHead=0;swimlaneBody=0;fillColor=none;collapsible=0;dropTarget=0;points=[[0,0.5],[1,0.5]];portConstraint=eastwest;top=0;left=0;right=0;bottom=1;" parent="qNud3ZH2w9W95GEun9CB-472" vertex="1">
          <mxGeometry y="60" width="250" height="30" as="geometry" />
        </mxCell>
        <mxCell id="qNud3ZH2w9W95GEun9CB-504" value="FK" style="shape=partialRectangle;connectable=0;fillColor=none;top=0;left=0;bottom=0;right=0;fontStyle=1;overflow=hidden;whiteSpace=wrap;html=1;" parent="qNud3ZH2w9W95GEun9CB-503" vertex="1">
          <mxGeometry width="70" height="30" as="geometry">
            <mxRectangle width="70" height="30" as="alternateBounds" />
          </mxGeometry>
        </mxCell>
        <mxCell id="qNud3ZH2w9W95GEun9CB-505" value="Product ID" style="shape=partialRectangle;connectable=0;fillColor=none;top=0;left=0;bottom=0;right=0;align=left;spacingLeft=6;fontStyle=5;overflow=hidden;whiteSpace=wrap;html=1;" parent="qNud3ZH2w9W95GEun9CB-503" vertex="1">
          <mxGeometry x="70" width="180" height="30" as="geometry">
            <mxRectangle width="180" height="30" as="alternateBounds" />
          </mxGeometry>
        </mxCell>
        <mxCell id="qNud3ZH2w9W95GEun9CB-476" value="" style="shape=tableRow;horizontal=0;startSize=0;swimlaneHead=0;swimlaneBody=0;fillColor=none;collapsible=0;dropTarget=0;points=[[0,0.5],[1,0.5]];portConstraint=eastwest;top=0;left=0;right=0;bottom=0;" parent="qNud3ZH2w9W95GEun9CB-472" vertex="1">
          <mxGeometry y="90" width="250" height="30" as="geometry" />
        </mxCell>
        <mxCell id="qNud3ZH2w9W95GEun9CB-477" value="DATE" style="shape=partialRectangle;connectable=0;fillColor=none;top=0;left=0;bottom=0;right=0;editable=1;overflow=hidden;whiteSpace=wrap;html=1;" parent="qNud3ZH2w9W95GEun9CB-476" vertex="1">
          <mxGeometry width="70" height="30" as="geometry">
            <mxRectangle width="70" height="30" as="alternateBounds" />
          </mxGeometry>
        </mxCell>
        <mxCell id="qNud3ZH2w9W95GEun9CB-478" value="Health Check Date" style="shape=partialRectangle;connectable=0;fillColor=none;top=0;left=0;bottom=0;right=0;align=left;spacingLeft=6;overflow=hidden;whiteSpace=wrap;html=1;" parent="qNud3ZH2w9W95GEun9CB-476" vertex="1">
          <mxGeometry x="70" width="180" height="30" as="geometry">
            <mxRectangle width="180" height="30" as="alternateBounds" />
          </mxGeometry>
        </mxCell>
        <mxCell id="qNud3ZH2w9W95GEun9CB-479" value="" style="shape=tableRow;horizontal=0;startSize=0;swimlaneHead=0;swimlaneBody=0;fillColor=none;collapsible=0;dropTarget=0;points=[[0,0.5],[1,0.5]];portConstraint=eastwest;top=0;left=0;right=0;bottom=0;" parent="qNud3ZH2w9W95GEun9CB-472" vertex="1">
          <mxGeometry y="120" width="250" height="30" as="geometry" />
        </mxCell>
        <mxCell id="qNud3ZH2w9W95GEun9CB-480" value="INT" style="shape=partialRectangle;connectable=0;fillColor=none;top=0;left=0;bottom=0;right=0;editable=1;overflow=hidden;whiteSpace=wrap;html=1;" parent="qNud3ZH2w9W95GEun9CB-479" vertex="1">
          <mxGeometry width="70" height="30" as="geometry">
            <mxRectangle width="70" height="30" as="alternateBounds" />
          </mxGeometry>
        </mxCell>
        <mxCell id="qNud3ZH2w9W95GEun9CB-481" value="Excellent Health Quantity" style="shape=partialRectangle;connectable=0;fillColor=none;top=0;left=0;bottom=0;right=0;align=left;spacingLeft=6;overflow=hidden;whiteSpace=wrap;html=1;" parent="qNud3ZH2w9W95GEun9CB-479" vertex="1">
          <mxGeometry x="70" width="180" height="30" as="geometry">
            <mxRectangle width="180" height="30" as="alternateBounds" />
          </mxGeometry>
        </mxCell>
        <mxCell id="qNud3ZH2w9W95GEun9CB-482" value="" style="shape=tableRow;horizontal=0;startSize=0;swimlaneHead=0;swimlaneBody=0;fillColor=none;collapsible=0;dropTarget=0;points=[[0,0.5],[1,0.5]];portConstraint=eastwest;top=0;left=0;right=0;bottom=0;" parent="qNud3ZH2w9W95GEun9CB-472" vertex="1">
          <mxGeometry y="150" width="250" height="30" as="geometry" />
        </mxCell>
        <mxCell id="qNud3ZH2w9W95GEun9CB-483" value="INT" style="shape=partialRectangle;connectable=0;fillColor=none;top=0;left=0;bottom=0;right=0;editable=1;overflow=hidden;whiteSpace=wrap;html=1;" parent="qNud3ZH2w9W95GEun9CB-482" vertex="1">
          <mxGeometry width="70" height="30" as="geometry">
            <mxRectangle width="70" height="30" as="alternateBounds" />
          </mxGeometry>
        </mxCell>
        <mxCell id="qNud3ZH2w9W95GEun9CB-484" value="Good Health Quantity" style="shape=partialRectangle;connectable=0;fillColor=none;top=0;left=0;bottom=0;right=0;align=left;spacingLeft=6;overflow=hidden;whiteSpace=wrap;html=1;" parent="qNud3ZH2w9W95GEun9CB-482" vertex="1">
          <mxGeometry x="70" width="180" height="30" as="geometry">
            <mxRectangle width="180" height="30" as="alternateBounds" />
          </mxGeometry>
        </mxCell>
        <mxCell id="qNud3ZH2w9W95GEun9CB-485" value="" style="shape=tableRow;horizontal=0;startSize=0;swimlaneHead=0;swimlaneBody=0;fillColor=none;collapsible=0;dropTarget=0;points=[[0,0.5],[1,0.5]];portConstraint=eastwest;top=0;left=0;right=0;bottom=0;" parent="qNud3ZH2w9W95GEun9CB-472" vertex="1">
          <mxGeometry y="180" width="250" height="30" as="geometry" />
        </mxCell>
        <mxCell id="qNud3ZH2w9W95GEun9CB-486" value="INT" style="shape=partialRectangle;connectable=0;fillColor=none;top=0;left=0;bottom=0;right=0;editable=1;overflow=hidden;whiteSpace=wrap;html=1;" parent="qNud3ZH2w9W95GEun9CB-485" vertex="1">
          <mxGeometry width="70" height="30" as="geometry">
            <mxRectangle width="70" height="30" as="alternateBounds" />
          </mxGeometry>
        </mxCell>
        <mxCell id="qNud3ZH2w9W95GEun9CB-487" value="Poor Health Quantity" style="shape=partialRectangle;connectable=0;fillColor=none;top=0;left=0;bottom=0;right=0;align=left;spacingLeft=6;overflow=hidden;whiteSpace=wrap;html=1;" parent="qNud3ZH2w9W95GEun9CB-485" vertex="1">
          <mxGeometry x="70" width="180" height="30" as="geometry">
            <mxRectangle width="180" height="30" as="alternateBounds" />
          </mxGeometry>
        </mxCell>
        <mxCell id="qNud3ZH2w9W95GEun9CB-509" value="" style="shape=tableRow;horizontal=0;startSize=0;swimlaneHead=0;swimlaneBody=0;fillColor=none;collapsible=0;dropTarget=0;points=[[0,0.5],[1,0.5]];portConstraint=eastwest;top=0;left=0;right=0;bottom=0;" parent="qNud3ZH2w9W95GEun9CB-472" vertex="1">
          <mxGeometry y="210" width="250" height="30" as="geometry" />
        </mxCell>
        <mxCell id="qNud3ZH2w9W95GEun9CB-510" value="INT" style="shape=partialRectangle;connectable=0;fillColor=none;top=0;left=0;bottom=0;right=0;editable=1;overflow=hidden;whiteSpace=wrap;html=1;" parent="qNud3ZH2w9W95GEun9CB-509" vertex="1">
          <mxGeometry width="70" height="30" as="geometry">
            <mxRectangle width="70" height="30" as="alternateBounds" />
          </mxGeometry>
        </mxCell>
        <mxCell id="qNud3ZH2w9W95GEun9CB-511" value="Unusable Health Quantity" style="shape=partialRectangle;connectable=0;fillColor=none;top=0;left=0;bottom=0;right=0;align=left;spacingLeft=6;overflow=hidden;whiteSpace=wrap;html=1;" parent="qNud3ZH2w9W95GEun9CB-509" vertex="1">
          <mxGeometry x="70" width="180" height="30" as="geometry">
            <mxRectangle width="180" height="30" as="alternateBounds" />
          </mxGeometry>
        </mxCell>
        <mxCell id="qNud3ZH2w9W95GEun9CB-524" value="" style="shape=tableRow;horizontal=0;startSize=0;swimlaneHead=0;swimlaneBody=0;fillColor=none;collapsible=0;dropTarget=0;points=[[0,0.5],[1,0.5]];portConstraint=eastwest;top=0;left=0;right=0;bottom=0;" parent="qNud3ZH2w9W95GEun9CB-472" vertex="1">
          <mxGeometry y="240" width="250" height="30" as="geometry" />
        </mxCell>
        <mxCell id="qNud3ZH2w9W95GEun9CB-525" value="INT" style="shape=partialRectangle;connectable=0;fillColor=none;top=0;left=0;bottom=0;right=0;editable=1;overflow=hidden;whiteSpace=wrap;html=1;" parent="qNud3ZH2w9W95GEun9CB-524" vertex="1">
          <mxGeometry width="70" height="30" as="geometry">
            <mxRectangle width="70" height="30" as="alternateBounds" />
          </mxGeometry>
        </mxCell>
        <mxCell id="qNud3ZH2w9W95GEun9CB-526" value="Discarded Quantity" style="shape=partialRectangle;connectable=0;fillColor=none;top=0;left=0;bottom=0;right=0;align=left;spacingLeft=6;overflow=hidden;whiteSpace=wrap;html=1;" parent="qNud3ZH2w9W95GEun9CB-524" vertex="1">
          <mxGeometry x="70" width="180" height="30" as="geometry">
            <mxRectangle width="180" height="30" as="alternateBounds" />
          </mxGeometry>
        </mxCell>
        <mxCell id="qNud3ZH2w9W95GEun9CB-512" value="" style="shape=tableRow;horizontal=0;startSize=0;swimlaneHead=0;swimlaneBody=0;fillColor=none;collapsible=0;dropTarget=0;points=[[0,0.5],[1,0.5]];portConstraint=eastwest;top=0;left=0;right=0;bottom=0;" parent="qNud3ZH2w9W95GEun9CB-472" vertex="1">
          <mxGeometry y="270" width="250" height="30" as="geometry" />
        </mxCell>
        <mxCell id="qNud3ZH2w9W95GEun9CB-513" value="INT" style="shape=partialRectangle;connectable=0;fillColor=none;top=0;left=0;bottom=0;right=0;editable=1;overflow=hidden;whiteSpace=wrap;html=1;" parent="qNud3ZH2w9W95GEun9CB-512" vertex="1">
          <mxGeometry width="70" height="30" as="geometry">
            <mxRectangle width="70" height="30" as="alternateBounds" />
          </mxGeometry>
        </mxCell>
        <mxCell id="qNud3ZH2w9W95GEun9CB-514" value="Lost Quantity" style="shape=partialRectangle;connectable=0;fillColor=none;top=0;left=0;bottom=0;right=0;align=left;spacingLeft=6;overflow=hidden;whiteSpace=wrap;html=1;" parent="qNud3ZH2w9W95GEun9CB-512" vertex="1">
          <mxGeometry x="70" width="180" height="30" as="geometry">
            <mxRectangle width="180" height="30" as="alternateBounds" />
          </mxGeometry>
        </mxCell>
        <mxCell id="qNud3ZH2w9W95GEun9CB-521" value="" style="shape=tableRow;horizontal=0;startSize=0;swimlaneHead=0;swimlaneBody=0;fillColor=none;collapsible=0;dropTarget=0;points=[[0,0.5],[1,0.5]];portConstraint=eastwest;top=0;left=0;right=0;bottom=0;" parent="qNud3ZH2w9W95GEun9CB-472" vertex="1">
          <mxGeometry y="300" width="250" height="30" as="geometry" />
        </mxCell>
        <mxCell id="qNud3ZH2w9W95GEun9CB-522" value="INT" style="shape=partialRectangle;connectable=0;fillColor=none;top=0;left=0;bottom=0;right=0;editable=1;overflow=hidden;whiteSpace=wrap;html=1;" parent="qNud3ZH2w9W95GEun9CB-521" vertex="1">
          <mxGeometry width="70" height="30" as="geometry">
            <mxRectangle width="70" height="30" as="alternateBounds" />
          </mxGeometry>
        </mxCell>
        <mxCell id="qNud3ZH2w9W95GEun9CB-523" value="Total Quantity" style="shape=partialRectangle;connectable=0;fillColor=none;top=0;left=0;bottom=0;right=0;align=left;spacingLeft=6;overflow=hidden;whiteSpace=wrap;html=1;" parent="qNud3ZH2w9W95GEun9CB-521" vertex="1">
          <mxGeometry x="70" width="180" height="30" as="geometry">
            <mxRectangle width="180" height="30" as="alternateBounds" />
          </mxGeometry>
        </mxCell>
        <mxCell id="qNud3ZH2w9W95GEun9CB-366" style="edgeStyle=orthogonalEdgeStyle;rounded=0;orthogonalLoop=1;jettySize=auto;html=1;exitX=0;exitY=0.5;exitDx=0;exitDy=0;shape=link;dashed=1;" parent="1" source="qNud3ZH2w9W95GEun9CB-285" target="qNud3ZH2w9W95GEun9CB-261" edge="1">
          <mxGeometry relative="1" as="geometry" />
        </mxCell>
        <mxCell id="qNud3ZH2w9W95GEun9CB-391" style="edgeStyle=orthogonalEdgeStyle;rounded=0;orthogonalLoop=1;jettySize=auto;html=1;exitX=0;exitY=0.5;exitDx=0;exitDy=0;shape=link;dashed=1;" parent="1" source="qNud3ZH2w9W95GEun9CB-390" target="qNud3ZH2w9W95GEun9CB-276" edge="1">
          <mxGeometry relative="1" as="geometry">
            <mxPoint x="1925" y="1360" as="targetPoint" />
          </mxGeometry>
        </mxCell>
        <mxCell id="Z7P_d-B9NXPDMU8aZaOI-125" style="edgeStyle=orthogonalEdgeStyle;rounded=0;orthogonalLoop=1;jettySize=auto;html=1;" edge="1" parent="1" source="qNud3ZH2w9W95GEun9CB-285" target="Z7P_d-B9NXPDMU8aZaOI-114">
          <mxGeometry relative="1" as="geometry">
            <Array as="points">
              <mxPoint x="2150" y="1000" />
              <mxPoint x="1930" y="1000" />
              <mxPoint x="1930" y="725" />
            </Array>
          </mxGeometry>
        </mxCell>
        <mxCell id="Z7P_d-B9NXPDMU8aZaOI-127" style="edgeStyle=orthogonalEdgeStyle;rounded=0;orthogonalLoop=1;jettySize=auto;html=1;" edge="1" parent="1" source="qNud3ZH2w9W95GEun9CB-285" target="qNud3ZH2w9W95GEun9CB-378">
          <mxGeometry relative="1" as="geometry">
            <Array as="points">
              <mxPoint x="2150" y="725" />
            </Array>
          </mxGeometry>
        </mxCell>
        <mxCell id="Z7P_d-B9NXPDMU8aZaOI-128" style="edgeStyle=orthogonalEdgeStyle;rounded=0;orthogonalLoop=1;jettySize=auto;html=1;" edge="1" parent="1" source="qNud3ZH2w9W95GEun9CB-285" target="qNud3ZH2w9W95GEun9CB-310">
          <mxGeometry relative="1" as="geometry">
            <Array as="points">
              <mxPoint x="2150" y="725" />
            </Array>
          </mxGeometry>
        </mxCell>
        <mxCell id="qNud3ZH2w9W95GEun9CB-285" value="Category ID-Variant ID-Brand ID-Size ID" style="whiteSpace=wrap;html=1;align=center;dashed=1;" parent="1" vertex="1">
          <mxGeometry x="1970" y="1100" width="310" height="40" as="geometry" />
        </mxCell>
        <mxCell id="qNud3ZH2w9W95GEun9CB-390" value="&lt;b&gt;Average Price&lt;/b&gt; is updated as orders are input into the database" style="whiteSpace=wrap;html=1;align=center;dashed=1;" parent="1" vertex="1">
          <mxGeometry x="1970" y="1375" width="355" height="40" as="geometry" />
        </mxCell>
        <mxCell id="qNud3ZH2w9W95GEun9CB-395" style="edgeStyle=orthogonalEdgeStyle;rounded=0;orthogonalLoop=1;jettySize=auto;html=1;exitX=0;exitY=0.5;exitDx=0;exitDy=0;entryX=1;entryY=0.5;entryDx=0;entryDy=0;shape=link;dashed=1;" parent="1" source="qNud3ZH2w9W95GEun9CB-392" target="qNud3ZH2w9W95GEun9CB-279" edge="1">
          <mxGeometry relative="1" as="geometry" />
        </mxCell>
        <mxCell id="qNud3ZH2w9W95GEun9CB-392" value="&lt;b&gt;Product Quantity&lt;/b&gt; is updated as orders are input into the database and as products are damaged, lost, or thrown away" style="whiteSpace=wrap;html=1;align=center;dashed=1;" parent="1" vertex="1">
          <mxGeometry x="1970" y="1270" width="355" height="60" as="geometry" />
        </mxCell>
        <mxCell id="qNud3ZH2w9W95GEun9CB-296" value="dimCategories" style="shape=table;startSize=30;container=1;collapsible=1;childLayout=tableLayout;fixedRows=1;rowLines=0;fontStyle=1;align=center;resizeLast=1;html=1;" parent="1" vertex="1">
          <mxGeometry x="1400" y="680" width="240" height="120" as="geometry" />
        </mxCell>
        <mxCell id="qNud3ZH2w9W95GEun9CB-297" value="" style="shape=tableRow;horizontal=0;startSize=0;swimlaneHead=0;swimlaneBody=0;fillColor=none;collapsible=0;dropTarget=0;points=[[0,0.5],[1,0.5]];portConstraint=eastwest;top=0;left=0;right=0;bottom=1;" parent="qNud3ZH2w9W95GEun9CB-296" vertex="1">
          <mxGeometry y="30" width="240" height="30" as="geometry" />
        </mxCell>
        <mxCell id="qNud3ZH2w9W95GEun9CB-298" value="PK" style="shape=partialRectangle;connectable=0;fillColor=none;top=0;left=0;bottom=0;right=0;fontStyle=1;overflow=hidden;whiteSpace=wrap;html=1;" parent="qNud3ZH2w9W95GEun9CB-297" vertex="1">
          <mxGeometry width="60" height="30" as="geometry">
            <mxRectangle width="60" height="30" as="alternateBounds" />
          </mxGeometry>
        </mxCell>
        <mxCell id="qNud3ZH2w9W95GEun9CB-299" value="Category ID" style="shape=partialRectangle;connectable=0;fillColor=none;top=0;left=0;bottom=0;right=0;align=left;spacingLeft=6;fontStyle=5;overflow=hidden;whiteSpace=wrap;html=1;" parent="qNud3ZH2w9W95GEun9CB-297" vertex="1">
          <mxGeometry x="60" width="180" height="30" as="geometry">
            <mxRectangle width="180" height="30" as="alternateBounds" />
          </mxGeometry>
        </mxCell>
        <mxCell id="qNud3ZH2w9W95GEun9CB-300" value="" style="shape=tableRow;horizontal=0;startSize=0;swimlaneHead=0;swimlaneBody=0;fillColor=none;collapsible=0;dropTarget=0;points=[[0,0.5],[1,0.5]];portConstraint=eastwest;top=0;left=0;right=0;bottom=0;" parent="qNud3ZH2w9W95GEun9CB-296" vertex="1">
          <mxGeometry y="60" width="240" height="30" as="geometry" />
        </mxCell>
        <mxCell id="qNud3ZH2w9W95GEun9CB-301" value="TEXT" style="shape=partialRectangle;connectable=0;fillColor=none;top=0;left=0;bottom=0;right=0;editable=1;overflow=hidden;whiteSpace=wrap;html=1;" parent="qNud3ZH2w9W95GEun9CB-300" vertex="1">
          <mxGeometry width="60" height="30" as="geometry">
            <mxRectangle width="60" height="30" as="alternateBounds" />
          </mxGeometry>
        </mxCell>
        <mxCell id="qNud3ZH2w9W95GEun9CB-302" value="Category" style="shape=partialRectangle;connectable=0;fillColor=none;top=0;left=0;bottom=0;right=0;align=left;spacingLeft=6;overflow=hidden;whiteSpace=wrap;html=1;" parent="qNud3ZH2w9W95GEun9CB-300" vertex="1">
          <mxGeometry x="60" width="180" height="30" as="geometry">
            <mxRectangle width="180" height="30" as="alternateBounds" />
          </mxGeometry>
        </mxCell>
        <mxCell id="qNud3ZH2w9W95GEun9CB-462" value="" style="shape=tableRow;horizontal=0;startSize=0;swimlaneHead=0;swimlaneBody=0;fillColor=none;collapsible=0;dropTarget=0;points=[[0,0.5],[1,0.5]];portConstraint=eastwest;top=0;left=0;right=0;bottom=0;" parent="qNud3ZH2w9W95GEun9CB-296" vertex="1">
          <mxGeometry y="90" width="240" height="30" as="geometry" />
        </mxCell>
        <mxCell id="qNud3ZH2w9W95GEun9CB-463" value="INT" style="shape=partialRectangle;connectable=0;fillColor=none;top=0;left=0;bottom=0;right=0;editable=1;overflow=hidden;whiteSpace=wrap;html=1;" parent="qNud3ZH2w9W95GEun9CB-462" vertex="1">
          <mxGeometry width="60" height="30" as="geometry">
            <mxRectangle width="60" height="30" as="alternateBounds" />
          </mxGeometry>
        </mxCell>
        <mxCell id="qNud3ZH2w9W95GEun9CB-464" value="Recommended Quantities" style="shape=partialRectangle;connectable=0;fillColor=none;top=0;left=0;bottom=0;right=0;align=left;spacingLeft=6;overflow=hidden;whiteSpace=wrap;html=1;" parent="qNud3ZH2w9W95GEun9CB-462" vertex="1">
          <mxGeometry x="60" width="180" height="30" as="geometry">
            <mxRectangle width="180" height="30" as="alternateBounds" />
          </mxGeometry>
        </mxCell>
        <mxCell id="qNud3ZH2w9W95GEun9CB-309" value="dimSizes" style="shape=table;startSize=30;container=1;collapsible=1;childLayout=tableLayout;fixedRows=1;rowLines=0;fontStyle=1;align=center;resizeLast=1;html=1;" parent="1" vertex="1">
          <mxGeometry x="2200" y="680" width="160" height="90" as="geometry" />
        </mxCell>
        <mxCell id="qNud3ZH2w9W95GEun9CB-310" value="" style="shape=tableRow;horizontal=0;startSize=0;swimlaneHead=0;swimlaneBody=0;fillColor=none;collapsible=0;dropTarget=0;points=[[0,0.5],[1,0.5]];portConstraint=eastwest;top=0;left=0;right=0;bottom=1;" parent="qNud3ZH2w9W95GEun9CB-309" vertex="1">
          <mxGeometry y="30" width="160" height="30" as="geometry" />
        </mxCell>
        <mxCell id="qNud3ZH2w9W95GEun9CB-311" value="PK" style="shape=partialRectangle;connectable=0;fillColor=none;top=0;left=0;bottom=0;right=0;fontStyle=1;overflow=hidden;whiteSpace=wrap;html=1;" parent="qNud3ZH2w9W95GEun9CB-310" vertex="1">
          <mxGeometry width="70" height="30" as="geometry">
            <mxRectangle width="70" height="30" as="alternateBounds" />
          </mxGeometry>
        </mxCell>
        <mxCell id="qNud3ZH2w9W95GEun9CB-312" value="Size ID" style="shape=partialRectangle;connectable=0;fillColor=none;top=0;left=0;bottom=0;right=0;align=left;spacingLeft=6;fontStyle=5;overflow=hidden;whiteSpace=wrap;html=1;" parent="qNud3ZH2w9W95GEun9CB-310" vertex="1">
          <mxGeometry x="70" width="90" height="30" as="geometry">
            <mxRectangle width="90" height="30" as="alternateBounds" />
          </mxGeometry>
        </mxCell>
        <mxCell id="qNud3ZH2w9W95GEun9CB-313" value="" style="shape=tableRow;horizontal=0;startSize=0;swimlaneHead=0;swimlaneBody=0;fillColor=none;collapsible=0;dropTarget=0;points=[[0,0.5],[1,0.5]];portConstraint=eastwest;top=0;left=0;right=0;bottom=0;" parent="qNud3ZH2w9W95GEun9CB-309" vertex="1">
          <mxGeometry y="60" width="160" height="30" as="geometry" />
        </mxCell>
        <mxCell id="qNud3ZH2w9W95GEun9CB-314" value="ALPHNUM" style="shape=partialRectangle;connectable=0;fillColor=none;top=0;left=0;bottom=0;right=0;editable=1;overflow=hidden;whiteSpace=wrap;html=1;" parent="qNud3ZH2w9W95GEun9CB-313" vertex="1">
          <mxGeometry width="70" height="30" as="geometry">
            <mxRectangle width="70" height="30" as="alternateBounds" />
          </mxGeometry>
        </mxCell>
        <mxCell id="qNud3ZH2w9W95GEun9CB-315" value="Size" style="shape=partialRectangle;connectable=0;fillColor=none;top=0;left=0;bottom=0;right=0;align=left;spacingLeft=6;overflow=hidden;whiteSpace=wrap;html=1;" parent="qNud3ZH2w9W95GEun9CB-313" vertex="1">
          <mxGeometry x="70" width="90" height="30" as="geometry">
            <mxRectangle width="90" height="30" as="alternateBounds" />
          </mxGeometry>
        </mxCell>
        <mxCell id="qNud3ZH2w9W95GEun9CB-377" value="dimBrands" style="shape=table;startSize=30;container=1;collapsible=1;childLayout=tableLayout;fixedRows=1;rowLines=0;fontStyle=1;align=center;resizeLast=1;html=1;" parent="1" vertex="1">
          <mxGeometry x="1960" y="680" width="160" height="120" as="geometry" />
        </mxCell>
        <mxCell id="qNud3ZH2w9W95GEun9CB-378" value="" style="shape=tableRow;horizontal=0;startSize=0;swimlaneHead=0;swimlaneBody=0;fillColor=none;collapsible=0;dropTarget=0;points=[[0,0.5],[1,0.5]];portConstraint=eastwest;top=0;left=0;right=0;bottom=1;" parent="qNud3ZH2w9W95GEun9CB-377" vertex="1">
          <mxGeometry y="30" width="160" height="30" as="geometry" />
        </mxCell>
        <mxCell id="qNud3ZH2w9W95GEun9CB-379" value="PK" style="shape=partialRectangle;connectable=0;fillColor=none;top=0;left=0;bottom=0;right=0;fontStyle=1;overflow=hidden;whiteSpace=wrap;html=1;" parent="qNud3ZH2w9W95GEun9CB-378" vertex="1">
          <mxGeometry width="70" height="30" as="geometry">
            <mxRectangle width="70" height="30" as="alternateBounds" />
          </mxGeometry>
        </mxCell>
        <mxCell id="qNud3ZH2w9W95GEun9CB-380" value="Brand ID" style="shape=partialRectangle;connectable=0;fillColor=none;top=0;left=0;bottom=0;right=0;align=left;spacingLeft=6;fontStyle=5;overflow=hidden;whiteSpace=wrap;html=1;" parent="qNud3ZH2w9W95GEun9CB-378" vertex="1">
          <mxGeometry x="70" width="90" height="30" as="geometry">
            <mxRectangle width="90" height="30" as="alternateBounds" />
          </mxGeometry>
        </mxCell>
        <mxCell id="qNud3ZH2w9W95GEun9CB-381" value="" style="shape=tableRow;horizontal=0;startSize=0;swimlaneHead=0;swimlaneBody=0;fillColor=none;collapsible=0;dropTarget=0;points=[[0,0.5],[1,0.5]];portConstraint=eastwest;top=0;left=0;right=0;bottom=0;" parent="qNud3ZH2w9W95GEun9CB-377" vertex="1">
          <mxGeometry y="60" width="160" height="30" as="geometry" />
        </mxCell>
        <mxCell id="qNud3ZH2w9W95GEun9CB-382" value="ALPHNUM" style="shape=partialRectangle;connectable=0;fillColor=none;top=0;left=0;bottom=0;right=0;editable=1;overflow=hidden;whiteSpace=wrap;html=1;" parent="qNud3ZH2w9W95GEun9CB-381" vertex="1">
          <mxGeometry width="70" height="30" as="geometry">
            <mxRectangle width="70" height="30" as="alternateBounds" />
          </mxGeometry>
        </mxCell>
        <mxCell id="qNud3ZH2w9W95GEun9CB-383" value="Brand" style="shape=partialRectangle;connectable=0;fillColor=none;top=0;left=0;bottom=0;right=0;align=left;spacingLeft=6;overflow=hidden;whiteSpace=wrap;html=1;" parent="qNud3ZH2w9W95GEun9CB-381" vertex="1">
          <mxGeometry x="70" width="90" height="30" as="geometry">
            <mxRectangle width="90" height="30" as="alternateBounds" />
          </mxGeometry>
        </mxCell>
        <mxCell id="qNud3ZH2w9W95GEun9CB-384" value="" style="shape=tableRow;horizontal=0;startSize=0;swimlaneHead=0;swimlaneBody=0;fillColor=none;collapsible=0;dropTarget=0;points=[[0,0.5],[1,0.5]];portConstraint=eastwest;top=0;left=0;right=0;bottom=0;" parent="qNud3ZH2w9W95GEun9CB-377" vertex="1">
          <mxGeometry y="90" width="160" height="30" as="geometry" />
        </mxCell>
        <mxCell id="qNud3ZH2w9W95GEun9CB-385" value="ALPHNUM" style="shape=partialRectangle;connectable=0;fillColor=none;top=0;left=0;bottom=0;right=0;editable=1;overflow=hidden;whiteSpace=wrap;html=1;" parent="qNud3ZH2w9W95GEun9CB-384" vertex="1">
          <mxGeometry width="70" height="30" as="geometry">
            <mxRectangle width="70" height="30" as="alternateBounds" />
          </mxGeometry>
        </mxCell>
        <mxCell id="qNud3ZH2w9W95GEun9CB-386" value="Model" style="shape=partialRectangle;connectable=0;fillColor=none;top=0;left=0;bottom=0;right=0;align=left;spacingLeft=6;overflow=hidden;whiteSpace=wrap;html=1;" parent="qNud3ZH2w9W95GEun9CB-384" vertex="1">
          <mxGeometry x="70" width="90" height="30" as="geometry">
            <mxRectangle width="90" height="30" as="alternateBounds" />
          </mxGeometry>
        </mxCell>
        <mxCell id="qNud3ZH2w9W95GEun9CB-321" value="Purchase Orders.csv" style="shape=table;startSize=30;container=1;collapsible=1;childLayout=tableLayout;fixedRows=1;rowLines=0;fontStyle=1;align=center;resizeLast=1;html=1;" parent="1" vertex="1">
          <mxGeometry x="750" y="600" width="210" height="420" as="geometry">
            <mxRectangle x="430" y="360" width="80" height="30" as="alternateBounds" />
          </mxGeometry>
        </mxCell>
        <mxCell id="qNud3ZH2w9W95GEun9CB-322" value="" style="shape=tableRow;horizontal=0;startSize=0;swimlaneHead=0;swimlaneBody=0;fillColor=none;collapsible=0;dropTarget=0;points=[[0,0.5],[1,0.5]];portConstraint=eastwest;top=0;left=0;right=0;bottom=1;" parent="qNud3ZH2w9W95GEun9CB-321" vertex="1">
          <mxGeometry y="30" width="210" height="30" as="geometry" />
        </mxCell>
        <mxCell id="qNud3ZH2w9W95GEun9CB-323" value="PK" style="shape=partialRectangle;connectable=0;fillColor=none;top=0;left=0;bottom=0;right=0;fontStyle=1;overflow=hidden;whiteSpace=wrap;html=1;" parent="qNud3ZH2w9W95GEun9CB-322" vertex="1">
          <mxGeometry width="80" height="30" as="geometry">
            <mxRectangle width="80" height="30" as="alternateBounds" />
          </mxGeometry>
        </mxCell>
        <mxCell id="qNud3ZH2w9W95GEun9CB-324" value="Order ID" style="shape=partialRectangle;connectable=0;fillColor=none;top=0;left=0;bottom=0;right=0;align=left;spacingLeft=6;fontStyle=5;overflow=hidden;whiteSpace=wrap;html=1;" parent="qNud3ZH2w9W95GEun9CB-322" vertex="1">
          <mxGeometry x="80" width="130" height="30" as="geometry">
            <mxRectangle width="130" height="30" as="alternateBounds" />
          </mxGeometry>
        </mxCell>
        <mxCell id="qNud3ZH2w9W95GEun9CB-325" value="" style="shape=tableRow;horizontal=0;startSize=0;swimlaneHead=0;swimlaneBody=0;fillColor=none;collapsible=0;dropTarget=0;points=[[0,0.5],[1,0.5]];portConstraint=eastwest;top=0;left=0;right=0;bottom=0;" parent="qNud3ZH2w9W95GEun9CB-321" vertex="1">
          <mxGeometry y="60" width="210" height="30" as="geometry" />
        </mxCell>
        <mxCell id="qNud3ZH2w9W95GEun9CB-326" value="&lt;div&gt;DATE&lt;/div&gt;" style="shape=partialRectangle;connectable=0;fillColor=none;top=0;left=0;bottom=0;right=0;editable=1;overflow=hidden;whiteSpace=wrap;html=1;" parent="qNud3ZH2w9W95GEun9CB-325" vertex="1">
          <mxGeometry width="80" height="30" as="geometry">
            <mxRectangle width="80" height="30" as="alternateBounds" />
          </mxGeometry>
        </mxCell>
        <mxCell id="qNud3ZH2w9W95GEun9CB-327" value="Order Date" style="shape=partialRectangle;connectable=0;fillColor=none;top=0;left=0;bottom=0;right=0;align=left;spacingLeft=6;overflow=hidden;whiteSpace=wrap;html=1;" parent="qNud3ZH2w9W95GEun9CB-325" vertex="1">
          <mxGeometry x="80" width="130" height="30" as="geometry">
            <mxRectangle width="130" height="30" as="alternateBounds" />
          </mxGeometry>
        </mxCell>
        <mxCell id="qNud3ZH2w9W95GEun9CB-328" value="" style="shape=tableRow;horizontal=0;startSize=0;swimlaneHead=0;swimlaneBody=0;fillColor=none;collapsible=0;dropTarget=0;points=[[0,0.5],[1,0.5]];portConstraint=eastwest;top=0;left=0;right=0;bottom=0;" parent="qNud3ZH2w9W95GEun9CB-321" vertex="1">
          <mxGeometry y="90" width="210" height="30" as="geometry" />
        </mxCell>
        <mxCell id="qNud3ZH2w9W95GEun9CB-329" value="ALPHNUM" style="shape=partialRectangle;connectable=0;fillColor=none;top=0;left=0;bottom=0;right=0;editable=1;overflow=hidden;whiteSpace=wrap;html=1;" parent="qNud3ZH2w9W95GEun9CB-328" vertex="1">
          <mxGeometry width="80" height="30" as="geometry">
            <mxRectangle width="80" height="30" as="alternateBounds" />
          </mxGeometry>
        </mxCell>
        <mxCell id="qNud3ZH2w9W95GEun9CB-330" value="Order Supplier" style="shape=partialRectangle;connectable=0;fillColor=none;top=0;left=0;bottom=0;right=0;align=left;spacingLeft=6;overflow=hidden;whiteSpace=wrap;html=1;" parent="qNud3ZH2w9W95GEun9CB-328" vertex="1">
          <mxGeometry x="80" width="130" height="30" as="geometry">
            <mxRectangle width="130" height="30" as="alternateBounds" />
          </mxGeometry>
        </mxCell>
        <mxCell id="qNud3ZH2w9W95GEun9CB-331" value="" style="shape=tableRow;horizontal=0;startSize=0;swimlaneHead=0;swimlaneBody=0;fillColor=none;collapsible=0;dropTarget=0;points=[[0,0.5],[1,0.5]];portConstraint=eastwest;top=0;left=0;right=0;bottom=0;" parent="qNud3ZH2w9W95GEun9CB-321" vertex="1">
          <mxGeometry y="120" width="210" height="30" as="geometry" />
        </mxCell>
        <mxCell id="qNud3ZH2w9W95GEun9CB-332" value="INT" style="shape=partialRectangle;connectable=0;fillColor=none;top=0;left=0;bottom=0;right=0;editable=1;overflow=hidden;whiteSpace=wrap;html=1;" parent="qNud3ZH2w9W95GEun9CB-331" vertex="1">
          <mxGeometry width="80" height="30" as="geometry">
            <mxRectangle width="80" height="30" as="alternateBounds" />
          </mxGeometry>
        </mxCell>
        <mxCell id="qNud3ZH2w9W95GEun9CB-333" value="Order Quantity" style="shape=partialRectangle;connectable=0;fillColor=none;top=0;left=0;bottom=0;right=0;align=left;spacingLeft=6;overflow=hidden;whiteSpace=wrap;html=1;" parent="qNud3ZH2w9W95GEun9CB-331" vertex="1">
          <mxGeometry x="80" width="130" height="30" as="geometry">
            <mxRectangle width="130" height="30" as="alternateBounds" />
          </mxGeometry>
        </mxCell>
        <mxCell id="qNud3ZH2w9W95GEun9CB-334" value="" style="shape=tableRow;horizontal=0;startSize=0;swimlaneHead=0;swimlaneBody=0;fillColor=none;collapsible=0;dropTarget=0;points=[[0,0.5],[1,0.5]];portConstraint=eastwest;top=0;left=0;right=0;bottom=0;" parent="qNud3ZH2w9W95GEun9CB-321" vertex="1">
          <mxGeometry y="150" width="210" height="30" as="geometry" />
        </mxCell>
        <mxCell id="qNud3ZH2w9W95GEun9CB-335" value="TEXT" style="shape=partialRectangle;connectable=0;fillColor=none;top=0;left=0;bottom=0;right=0;editable=1;overflow=hidden;whiteSpace=wrap;html=1;" parent="qNud3ZH2w9W95GEun9CB-334" vertex="1">
          <mxGeometry width="80" height="30" as="geometry">
            <mxRectangle width="80" height="30" as="alternateBounds" />
          </mxGeometry>
        </mxCell>
        <mxCell id="qNud3ZH2w9W95GEun9CB-336" value="Product Category" style="shape=partialRectangle;connectable=0;fillColor=none;top=0;left=0;bottom=0;right=0;align=left;spacingLeft=6;overflow=hidden;whiteSpace=wrap;html=1;" parent="qNud3ZH2w9W95GEun9CB-334" vertex="1">
          <mxGeometry x="80" width="130" height="30" as="geometry">
            <mxRectangle width="130" height="30" as="alternateBounds" />
          </mxGeometry>
        </mxCell>
        <mxCell id="qNud3ZH2w9W95GEun9CB-337" value="" style="shape=tableRow;horizontal=0;startSize=0;swimlaneHead=0;swimlaneBody=0;fillColor=none;collapsible=0;dropTarget=0;points=[[0,0.5],[1,0.5]];portConstraint=eastwest;top=0;left=0;right=0;bottom=0;" parent="qNud3ZH2w9W95GEun9CB-321" vertex="1">
          <mxGeometry y="180" width="210" height="30" as="geometry" />
        </mxCell>
        <mxCell id="qNud3ZH2w9W95GEun9CB-338" value="TEXT" style="shape=partialRectangle;connectable=0;fillColor=none;top=0;left=0;bottom=0;right=0;editable=1;overflow=hidden;whiteSpace=wrap;html=1;" parent="qNud3ZH2w9W95GEun9CB-337" vertex="1">
          <mxGeometry width="80" height="30" as="geometry">
            <mxRectangle width="80" height="30" as="alternateBounds" />
          </mxGeometry>
        </mxCell>
        <mxCell id="qNud3ZH2w9W95GEun9CB-339" value="Product Name" style="shape=partialRectangle;connectable=0;fillColor=none;top=0;left=0;bottom=0;right=0;align=left;spacingLeft=6;overflow=hidden;whiteSpace=wrap;html=1;" parent="qNud3ZH2w9W95GEun9CB-337" vertex="1">
          <mxGeometry x="80" width="130" height="30" as="geometry">
            <mxRectangle width="130" height="30" as="alternateBounds" />
          </mxGeometry>
        </mxCell>
        <mxCell id="Z7P_d-B9NXPDMU8aZaOI-110" value="" style="shape=tableRow;horizontal=0;startSize=0;swimlaneHead=0;swimlaneBody=0;fillColor=none;collapsible=0;dropTarget=0;points=[[0,0.5],[1,0.5]];portConstraint=eastwest;top=0;left=0;right=0;bottom=0;" vertex="1" parent="qNud3ZH2w9W95GEun9CB-321">
          <mxGeometry y="210" width="210" height="30" as="geometry" />
        </mxCell>
        <mxCell id="Z7P_d-B9NXPDMU8aZaOI-111" value="TEXT" style="shape=partialRectangle;connectable=0;fillColor=none;top=0;left=0;bottom=0;right=0;editable=1;overflow=hidden;whiteSpace=wrap;html=1;" vertex="1" parent="Z7P_d-B9NXPDMU8aZaOI-110">
          <mxGeometry width="80" height="30" as="geometry">
            <mxRectangle width="80" height="30" as="alternateBounds" />
          </mxGeometry>
        </mxCell>
        <mxCell id="Z7P_d-B9NXPDMU8aZaOI-112" value="Product Variant" style="shape=partialRectangle;connectable=0;fillColor=none;top=0;left=0;bottom=0;right=0;align=left;spacingLeft=6;overflow=hidden;whiteSpace=wrap;html=1;" vertex="1" parent="Z7P_d-B9NXPDMU8aZaOI-110">
          <mxGeometry x="80" width="130" height="30" as="geometry">
            <mxRectangle width="130" height="30" as="alternateBounds" />
          </mxGeometry>
        </mxCell>
        <mxCell id="qNud3ZH2w9W95GEun9CB-340" value="" style="shape=tableRow;horizontal=0;startSize=0;swimlaneHead=0;swimlaneBody=0;fillColor=none;collapsible=0;dropTarget=0;points=[[0,0.5],[1,0.5]];portConstraint=eastwest;top=0;left=0;right=0;bottom=0;" parent="qNud3ZH2w9W95GEun9CB-321" vertex="1">
          <mxGeometry y="240" width="210" height="30" as="geometry" />
        </mxCell>
        <mxCell id="qNud3ZH2w9W95GEun9CB-341" value="ALPHNUM" style="shape=partialRectangle;connectable=0;fillColor=none;top=0;left=0;bottom=0;right=0;editable=1;overflow=hidden;whiteSpace=wrap;html=1;" parent="qNud3ZH2w9W95GEun9CB-340" vertex="1">
          <mxGeometry width="80" height="30" as="geometry">
            <mxRectangle width="80" height="30" as="alternateBounds" />
          </mxGeometry>
        </mxCell>
        <mxCell id="qNud3ZH2w9W95GEun9CB-342" value="Product Brand" style="shape=partialRectangle;connectable=0;fillColor=none;top=0;left=0;bottom=0;right=0;align=left;spacingLeft=6;overflow=hidden;whiteSpace=wrap;html=1;" parent="qNud3ZH2w9W95GEun9CB-340" vertex="1">
          <mxGeometry x="80" width="130" height="30" as="geometry">
            <mxRectangle width="130" height="30" as="alternateBounds" />
          </mxGeometry>
        </mxCell>
        <mxCell id="qNud3ZH2w9W95GEun9CB-343" value="" style="shape=tableRow;horizontal=0;startSize=0;swimlaneHead=0;swimlaneBody=0;fillColor=none;collapsible=0;dropTarget=0;points=[[0,0.5],[1,0.5]];portConstraint=eastwest;top=0;left=0;right=0;bottom=0;" parent="qNud3ZH2w9W95GEun9CB-321" vertex="1">
          <mxGeometry y="270" width="210" height="30" as="geometry" />
        </mxCell>
        <mxCell id="qNud3ZH2w9W95GEun9CB-344" value="ALPHNUM" style="shape=partialRectangle;connectable=0;fillColor=none;top=0;left=0;bottom=0;right=0;editable=1;overflow=hidden;whiteSpace=wrap;html=1;" parent="qNud3ZH2w9W95GEun9CB-343" vertex="1">
          <mxGeometry width="80" height="30" as="geometry">
            <mxRectangle width="80" height="30" as="alternateBounds" />
          </mxGeometry>
        </mxCell>
        <mxCell id="qNud3ZH2w9W95GEun9CB-345" value="Product Model" style="shape=partialRectangle;connectable=0;fillColor=none;top=0;left=0;bottom=0;right=0;align=left;spacingLeft=6;overflow=hidden;whiteSpace=wrap;html=1;" parent="qNud3ZH2w9W95GEun9CB-343" vertex="1">
          <mxGeometry x="80" width="130" height="30" as="geometry">
            <mxRectangle width="130" height="30" as="alternateBounds" />
          </mxGeometry>
        </mxCell>
        <mxCell id="qNud3ZH2w9W95GEun9CB-346" value="" style="shape=tableRow;horizontal=0;startSize=0;swimlaneHead=0;swimlaneBody=0;fillColor=none;collapsible=0;dropTarget=0;points=[[0,0.5],[1,0.5]];portConstraint=eastwest;top=0;left=0;right=0;bottom=0;" parent="qNud3ZH2w9W95GEun9CB-321" vertex="1">
          <mxGeometry y="300" width="210" height="30" as="geometry" />
        </mxCell>
        <mxCell id="qNud3ZH2w9W95GEun9CB-347" value="ALPHNUM" style="shape=partialRectangle;connectable=0;fillColor=none;top=0;left=0;bottom=0;right=0;editable=1;overflow=hidden;whiteSpace=wrap;html=1;" parent="qNud3ZH2w9W95GEun9CB-346" vertex="1">
          <mxGeometry width="80" height="30" as="geometry">
            <mxRectangle width="80" height="30" as="alternateBounds" />
          </mxGeometry>
        </mxCell>
        <mxCell id="qNud3ZH2w9W95GEun9CB-348" value="Product Size" style="shape=partialRectangle;connectable=0;fillColor=none;top=0;left=0;bottom=0;right=0;align=left;spacingLeft=6;overflow=hidden;whiteSpace=wrap;html=1;" parent="qNud3ZH2w9W95GEun9CB-346" vertex="1">
          <mxGeometry x="80" width="130" height="30" as="geometry">
            <mxRectangle width="130" height="30" as="alternateBounds" />
          </mxGeometry>
        </mxCell>
        <mxCell id="qNud3ZH2w9W95GEun9CB-352" value="" style="shape=tableRow;horizontal=0;startSize=0;swimlaneHead=0;swimlaneBody=0;fillColor=none;collapsible=0;dropTarget=0;points=[[0,0.5],[1,0.5]];portConstraint=eastwest;top=0;left=0;right=0;bottom=0;" parent="qNud3ZH2w9W95GEun9CB-321" vertex="1">
          <mxGeometry y="330" width="210" height="30" as="geometry" />
        </mxCell>
        <mxCell id="qNud3ZH2w9W95GEun9CB-353" value="FLOAT" style="shape=partialRectangle;connectable=0;fillColor=none;top=0;left=0;bottom=0;right=0;editable=1;overflow=hidden;whiteSpace=wrap;html=1;" parent="qNud3ZH2w9W95GEun9CB-352" vertex="1">
          <mxGeometry width="80" height="30" as="geometry">
            <mxRectangle width="80" height="30" as="alternateBounds" />
          </mxGeometry>
        </mxCell>
        <mxCell id="qNud3ZH2w9W95GEun9CB-354" value="Product Price" style="shape=partialRectangle;connectable=0;fillColor=none;top=0;left=0;bottom=0;right=0;align=left;spacingLeft=6;overflow=hidden;whiteSpace=wrap;html=1;" parent="qNud3ZH2w9W95GEun9CB-352" vertex="1">
          <mxGeometry x="80" width="130" height="30" as="geometry">
            <mxRectangle width="130" height="30" as="alternateBounds" />
          </mxGeometry>
        </mxCell>
        <mxCell id="qNud3ZH2w9W95GEun9CB-355" value="" style="shape=tableRow;horizontal=0;startSize=0;swimlaneHead=0;swimlaneBody=0;fillColor=none;collapsible=0;dropTarget=0;points=[[0,0.5],[1,0.5]];portConstraint=eastwest;top=0;left=0;right=0;bottom=0;" parent="qNud3ZH2w9W95GEun9CB-321" vertex="1">
          <mxGeometry y="360" width="210" height="30" as="geometry" />
        </mxCell>
        <mxCell id="qNud3ZH2w9W95GEun9CB-356" value="INT" style="shape=partialRectangle;connectable=0;fillColor=none;top=0;left=0;bottom=0;right=0;editable=1;overflow=hidden;whiteSpace=wrap;html=1;" parent="qNud3ZH2w9W95GEun9CB-355" vertex="1">
          <mxGeometry width="80" height="30" as="geometry">
            <mxRectangle width="80" height="30" as="alternateBounds" />
          </mxGeometry>
        </mxCell>
        <mxCell id="qNud3ZH2w9W95GEun9CB-357" value="Product Quantity" style="shape=partialRectangle;connectable=0;fillColor=none;top=0;left=0;bottom=0;right=0;align=left;spacingLeft=6;overflow=hidden;whiteSpace=wrap;html=1;" parent="qNud3ZH2w9W95GEun9CB-355" vertex="1">
          <mxGeometry x="80" width="130" height="30" as="geometry">
            <mxRectangle width="130" height="30" as="alternateBounds" />
          </mxGeometry>
        </mxCell>
        <mxCell id="qNud3ZH2w9W95GEun9CB-358" value="" style="shape=tableRow;horizontal=0;startSize=0;swimlaneHead=0;swimlaneBody=0;fillColor=none;collapsible=0;dropTarget=0;points=[[0,0.5],[1,0.5]];portConstraint=eastwest;top=0;left=0;right=0;bottom=0;" parent="qNud3ZH2w9W95GEun9CB-321" vertex="1">
          <mxGeometry y="390" width="210" height="30" as="geometry" />
        </mxCell>
        <mxCell id="qNud3ZH2w9W95GEun9CB-359" value="ALPHNUM" style="shape=partialRectangle;connectable=0;fillColor=none;top=0;left=0;bottom=0;right=0;editable=1;overflow=hidden;whiteSpace=wrap;html=1;" parent="qNud3ZH2w9W95GEun9CB-358" vertex="1">
          <mxGeometry width="80" height="30" as="geometry">
            <mxRectangle width="80" height="30" as="alternateBounds" />
          </mxGeometry>
        </mxCell>
        <mxCell id="qNud3ZH2w9W95GEun9CB-360" value="Product Hyperlink" style="shape=partialRectangle;connectable=0;fillColor=none;top=0;left=0;bottom=0;right=0;align=left;spacingLeft=6;overflow=hidden;whiteSpace=wrap;html=1;" parent="qNud3ZH2w9W95GEun9CB-358" vertex="1">
          <mxGeometry x="80" width="130" height="30" as="geometry">
            <mxRectangle width="130" height="30" as="alternateBounds" />
          </mxGeometry>
        </mxCell>
        <mxCell id="qNud3ZH2w9W95GEun9CB-365" value="" style="edgeStyle=entityRelationEdgeStyle;fontSize=12;html=1;endArrow=ERoneToMany;startArrow=ERmandOne;rounded=0;exitX=0;exitY=0.5;exitDx=0;exitDy=0;entryX=1;entryY=0.5;entryDx=0;entryDy=0;" parent="1" source="qNud3ZH2w9W95GEun9CB-225" target="qNud3ZH2w9W95GEun9CB-361" edge="1">
          <mxGeometry width="100" height="100" relative="1" as="geometry">
            <mxPoint x="1505" y="1490" as="sourcePoint" />
            <mxPoint x="1585" y="1290" as="targetPoint" />
          </mxGeometry>
        </mxCell>
        <mxCell id="qNud3ZH2w9W95GEun9CB-519" value="" style="edgeStyle=entityRelationEdgeStyle;fontSize=12;html=1;endArrow=ERoneToMany;startArrow=ERmandOne;rounded=0;exitX=0;exitY=0.5;exitDx=0;exitDy=0;" parent="1" source="qNud3ZH2w9W95GEun9CB-225" target="qNud3ZH2w9W95GEun9CB-503" edge="1">
          <mxGeometry width="100" height="100" relative="1" as="geometry">
            <mxPoint x="1335" y="1320" as="sourcePoint" />
            <mxPoint x="1570" y="1725" as="targetPoint" />
            <Array as="points">
              <mxPoint x="1615" y="1520" />
              <mxPoint x="1645" y="1220" />
              <mxPoint x="1635" y="1420" />
            </Array>
          </mxGeometry>
        </mxCell>
        <mxCell id="qNud3ZH2w9W95GEun9CB-528" style="edgeStyle=orthogonalEdgeStyle;rounded=0;orthogonalLoop=1;jettySize=auto;html=1;entryX=1;entryY=0.5;entryDx=0;entryDy=0;shape=link;dashed=1;" parent="1" source="qNud3ZH2w9W95GEun9CB-527" target="qNud3ZH2w9W95GEun9CB-521" edge="1">
          <mxGeometry relative="1" as="geometry" />
        </mxCell>
        <mxCell id="qNud3ZH2w9W95GEun9CB-527" value="&lt;i&gt;Sum (Health Quantities) - Sum(Discarded, Lost)&lt;/i&gt;" style="whiteSpace=wrap;html=1;align=center;dashed=1;" parent="1" vertex="1">
          <mxGeometry x="1595" y="1580" width="290" height="30" as="geometry" />
        </mxCell>
        <mxCell id="qNud3ZH2w9W95GEun9CB-630" value="&lt;i&gt;JOIN Fact_Product Health &amp;amp; Dim_Products&lt;/i&gt;" style="whiteSpace=wrap;html=1;align=center;dashed=1;" parent="1" vertex="1">
          <mxGeometry x="715" y="1530" width="290" height="30" as="geometry" />
        </mxCell>
        <mxCell id="qNud3ZH2w9W95GEun9CB-577" value="Inventory Check" style="shape=table;startSize=30;container=1;collapsible=1;childLayout=tableLayout;fixedRows=1;rowLines=0;fontStyle=1;align=center;resizeLast=1;html=1;" parent="1" vertex="1">
          <mxGeometry x="735" y="1560" width="250" height="420" as="geometry" />
        </mxCell>
        <mxCell id="qNud3ZH2w9W95GEun9CB-581" value="" style="shape=tableRow;horizontal=0;startSize=0;swimlaneHead=0;swimlaneBody=0;fillColor=none;collapsible=0;dropTarget=0;points=[[0,0.5],[1,0.5]];portConstraint=eastwest;top=0;left=0;right=0;bottom=1;" parent="qNud3ZH2w9W95GEun9CB-577" vertex="1">
          <mxGeometry y="30" width="250" height="30" as="geometry" />
        </mxCell>
        <mxCell id="qNud3ZH2w9W95GEun9CB-582" value="PK" style="shape=partialRectangle;connectable=0;fillColor=none;top=0;left=0;bottom=0;right=0;fontStyle=1;overflow=hidden;whiteSpace=wrap;html=1;" parent="qNud3ZH2w9W95GEun9CB-581" vertex="1">
          <mxGeometry width="70" height="30" as="geometry">
            <mxRectangle width="70" height="30" as="alternateBounds" />
          </mxGeometry>
        </mxCell>
        <mxCell id="qNud3ZH2w9W95GEun9CB-583" value="Product Key" style="shape=partialRectangle;connectable=0;fillColor=none;top=0;left=0;bottom=0;right=0;align=left;spacingLeft=6;fontStyle=5;overflow=hidden;whiteSpace=wrap;html=1;" parent="qNud3ZH2w9W95GEun9CB-581" vertex="1">
          <mxGeometry x="70" width="180" height="30" as="geometry">
            <mxRectangle width="180" height="30" as="alternateBounds" />
          </mxGeometry>
        </mxCell>
        <mxCell id="qNud3ZH2w9W95GEun9CB-608" value="" style="shape=tableRow;horizontal=0;startSize=0;swimlaneHead=0;swimlaneBody=0;fillColor=none;collapsible=0;dropTarget=0;points=[[0,0.5],[1,0.5]];portConstraint=eastwest;top=0;left=0;right=0;bottom=0;" parent="qNud3ZH2w9W95GEun9CB-577" vertex="1">
          <mxGeometry y="60" width="250" height="30" as="geometry" />
        </mxCell>
        <mxCell id="qNud3ZH2w9W95GEun9CB-609" value="TEXT" style="shape=partialRectangle;connectable=0;fillColor=none;top=0;left=0;bottom=0;right=0;editable=1;overflow=hidden;whiteSpace=wrap;html=1;" parent="qNud3ZH2w9W95GEun9CB-608" vertex="1">
          <mxGeometry width="70" height="30" as="geometry">
            <mxRectangle width="70" height="30" as="alternateBounds" />
          </mxGeometry>
        </mxCell>
        <mxCell id="qNud3ZH2w9W95GEun9CB-610" value="Product Category" style="shape=partialRectangle;connectable=0;fillColor=none;top=0;left=0;bottom=0;right=0;align=left;spacingLeft=6;overflow=hidden;whiteSpace=wrap;html=1;" parent="qNud3ZH2w9W95GEun9CB-608" vertex="1">
          <mxGeometry x="70" width="180" height="30" as="geometry">
            <mxRectangle width="180" height="30" as="alternateBounds" />
          </mxGeometry>
        </mxCell>
        <mxCell id="qNud3ZH2w9W95GEun9CB-611" value="" style="shape=tableRow;horizontal=0;startSize=0;swimlaneHead=0;swimlaneBody=0;fillColor=none;collapsible=0;dropTarget=0;points=[[0,0.5],[1,0.5]];portConstraint=eastwest;top=0;left=0;right=0;bottom=0;" parent="qNud3ZH2w9W95GEun9CB-577" vertex="1">
          <mxGeometry y="90" width="250" height="30" as="geometry" />
        </mxCell>
        <mxCell id="qNud3ZH2w9W95GEun9CB-612" value="TEXT" style="shape=partialRectangle;connectable=0;fillColor=none;top=0;left=0;bottom=0;right=0;editable=1;overflow=hidden;whiteSpace=wrap;html=1;" parent="qNud3ZH2w9W95GEun9CB-611" vertex="1">
          <mxGeometry width="70" height="30" as="geometry">
            <mxRectangle width="70" height="30" as="alternateBounds" />
          </mxGeometry>
        </mxCell>
        <mxCell id="qNud3ZH2w9W95GEun9CB-613" value="Product Name" style="shape=partialRectangle;connectable=0;fillColor=none;top=0;left=0;bottom=0;right=0;align=left;spacingLeft=6;overflow=hidden;whiteSpace=wrap;html=1;" parent="qNud3ZH2w9W95GEun9CB-611" vertex="1">
          <mxGeometry x="70" width="180" height="30" as="geometry">
            <mxRectangle width="180" height="30" as="alternateBounds" />
          </mxGeometry>
        </mxCell>
        <mxCell id="qNud3ZH2w9W95GEun9CB-614" value="" style="shape=tableRow;horizontal=0;startSize=0;swimlaneHead=0;swimlaneBody=0;fillColor=none;collapsible=0;dropTarget=0;points=[[0,0.5],[1,0.5]];portConstraint=eastwest;top=0;left=0;right=0;bottom=0;" parent="qNud3ZH2w9W95GEun9CB-577" vertex="1">
          <mxGeometry y="120" width="250" height="30" as="geometry" />
        </mxCell>
        <mxCell id="qNud3ZH2w9W95GEun9CB-615" value="TEXT" style="shape=partialRectangle;connectable=0;fillColor=none;top=0;left=0;bottom=0;right=0;editable=1;overflow=hidden;whiteSpace=wrap;html=1;" parent="qNud3ZH2w9W95GEun9CB-614" vertex="1">
          <mxGeometry width="70" height="30" as="geometry">
            <mxRectangle width="70" height="30" as="alternateBounds" />
          </mxGeometry>
        </mxCell>
        <mxCell id="qNud3ZH2w9W95GEun9CB-616" value="Product Size" style="shape=partialRectangle;connectable=0;fillColor=none;top=0;left=0;bottom=0;right=0;align=left;spacingLeft=6;overflow=hidden;whiteSpace=wrap;html=1;" parent="qNud3ZH2w9W95GEun9CB-614" vertex="1">
          <mxGeometry x="70" width="180" height="30" as="geometry">
            <mxRectangle width="180" height="30" as="alternateBounds" />
          </mxGeometry>
        </mxCell>
        <mxCell id="qNud3ZH2w9W95GEun9CB-617" value="" style="shape=tableRow;horizontal=0;startSize=0;swimlaneHead=0;swimlaneBody=0;fillColor=none;collapsible=0;dropTarget=0;points=[[0,0.5],[1,0.5]];portConstraint=eastwest;top=0;left=0;right=0;bottom=0;" parent="qNud3ZH2w9W95GEun9CB-577" vertex="1">
          <mxGeometry y="150" width="250" height="30" as="geometry" />
        </mxCell>
        <mxCell id="qNud3ZH2w9W95GEun9CB-618" value="TEXT" style="shape=partialRectangle;connectable=0;fillColor=none;top=0;left=0;bottom=0;right=0;editable=1;overflow=hidden;whiteSpace=wrap;html=1;" parent="qNud3ZH2w9W95GEun9CB-617" vertex="1">
          <mxGeometry width="70" height="30" as="geometry">
            <mxRectangle width="70" height="30" as="alternateBounds" />
          </mxGeometry>
        </mxCell>
        <mxCell id="qNud3ZH2w9W95GEun9CB-619" value="Product Brand" style="shape=partialRectangle;connectable=0;fillColor=none;top=0;left=0;bottom=0;right=0;align=left;spacingLeft=6;overflow=hidden;whiteSpace=wrap;html=1;" parent="qNud3ZH2w9W95GEun9CB-617" vertex="1">
          <mxGeometry x="70" width="180" height="30" as="geometry">
            <mxRectangle width="180" height="30" as="alternateBounds" />
          </mxGeometry>
        </mxCell>
        <mxCell id="qNud3ZH2w9W95GEun9CB-620" value="" style="shape=tableRow;horizontal=0;startSize=0;swimlaneHead=0;swimlaneBody=0;fillColor=none;collapsible=0;dropTarget=0;points=[[0,0.5],[1,0.5]];portConstraint=eastwest;top=0;left=0;right=0;bottom=0;" parent="qNud3ZH2w9W95GEun9CB-577" vertex="1">
          <mxGeometry y="180" width="250" height="30" as="geometry" />
        </mxCell>
        <mxCell id="qNud3ZH2w9W95GEun9CB-621" value="TEXT" style="shape=partialRectangle;connectable=0;fillColor=none;top=0;left=0;bottom=0;right=0;editable=1;overflow=hidden;whiteSpace=wrap;html=1;" parent="qNud3ZH2w9W95GEun9CB-620" vertex="1">
          <mxGeometry width="70" height="30" as="geometry">
            <mxRectangle width="70" height="30" as="alternateBounds" />
          </mxGeometry>
        </mxCell>
        <mxCell id="qNud3ZH2w9W95GEun9CB-622" value="Product Model" style="shape=partialRectangle;connectable=0;fillColor=none;top=0;left=0;bottom=0;right=0;align=left;spacingLeft=6;overflow=hidden;whiteSpace=wrap;html=1;" parent="qNud3ZH2w9W95GEun9CB-620" vertex="1">
          <mxGeometry x="70" width="180" height="30" as="geometry">
            <mxRectangle width="180" height="30" as="alternateBounds" />
          </mxGeometry>
        </mxCell>
        <mxCell id="qNud3ZH2w9W95GEun9CB-587" value="" style="shape=tableRow;horizontal=0;startSize=0;swimlaneHead=0;swimlaneBody=0;fillColor=none;collapsible=0;dropTarget=0;points=[[0,0.5],[1,0.5]];portConstraint=eastwest;top=0;left=0;right=0;bottom=0;" parent="qNud3ZH2w9W95GEun9CB-577" vertex="1">
          <mxGeometry y="210" width="250" height="30" as="geometry" />
        </mxCell>
        <mxCell id="qNud3ZH2w9W95GEun9CB-588" value="INT" style="shape=partialRectangle;connectable=0;fillColor=none;top=0;left=0;bottom=0;right=0;editable=1;overflow=hidden;whiteSpace=wrap;html=1;" parent="qNud3ZH2w9W95GEun9CB-587" vertex="1">
          <mxGeometry width="70" height="30" as="geometry">
            <mxRectangle width="70" height="30" as="alternateBounds" />
          </mxGeometry>
        </mxCell>
        <mxCell id="qNud3ZH2w9W95GEun9CB-589" value="Excellent Health Quantity" style="shape=partialRectangle;connectable=0;fillColor=none;top=0;left=0;bottom=0;right=0;align=left;spacingLeft=6;overflow=hidden;whiteSpace=wrap;html=1;" parent="qNud3ZH2w9W95GEun9CB-587" vertex="1">
          <mxGeometry x="70" width="180" height="30" as="geometry">
            <mxRectangle width="180" height="30" as="alternateBounds" />
          </mxGeometry>
        </mxCell>
        <mxCell id="qNud3ZH2w9W95GEun9CB-590" value="" style="shape=tableRow;horizontal=0;startSize=0;swimlaneHead=0;swimlaneBody=0;fillColor=none;collapsible=0;dropTarget=0;points=[[0,0.5],[1,0.5]];portConstraint=eastwest;top=0;left=0;right=0;bottom=0;" parent="qNud3ZH2w9W95GEun9CB-577" vertex="1">
          <mxGeometry y="240" width="250" height="30" as="geometry" />
        </mxCell>
        <mxCell id="qNud3ZH2w9W95GEun9CB-591" value="INT" style="shape=partialRectangle;connectable=0;fillColor=none;top=0;left=0;bottom=0;right=0;editable=1;overflow=hidden;whiteSpace=wrap;html=1;" parent="qNud3ZH2w9W95GEun9CB-590" vertex="1">
          <mxGeometry width="70" height="30" as="geometry">
            <mxRectangle width="70" height="30" as="alternateBounds" />
          </mxGeometry>
        </mxCell>
        <mxCell id="qNud3ZH2w9W95GEun9CB-592" value="Good Health Quantity" style="shape=partialRectangle;connectable=0;fillColor=none;top=0;left=0;bottom=0;right=0;align=left;spacingLeft=6;overflow=hidden;whiteSpace=wrap;html=1;" parent="qNud3ZH2w9W95GEun9CB-590" vertex="1">
          <mxGeometry x="70" width="180" height="30" as="geometry">
            <mxRectangle width="180" height="30" as="alternateBounds" />
          </mxGeometry>
        </mxCell>
        <mxCell id="qNud3ZH2w9W95GEun9CB-593" value="" style="shape=tableRow;horizontal=0;startSize=0;swimlaneHead=0;swimlaneBody=0;fillColor=none;collapsible=0;dropTarget=0;points=[[0,0.5],[1,0.5]];portConstraint=eastwest;top=0;left=0;right=0;bottom=0;" parent="qNud3ZH2w9W95GEun9CB-577" vertex="1">
          <mxGeometry y="270" width="250" height="30" as="geometry" />
        </mxCell>
        <mxCell id="qNud3ZH2w9W95GEun9CB-594" value="INT" style="shape=partialRectangle;connectable=0;fillColor=none;top=0;left=0;bottom=0;right=0;editable=1;overflow=hidden;whiteSpace=wrap;html=1;" parent="qNud3ZH2w9W95GEun9CB-593" vertex="1">
          <mxGeometry width="70" height="30" as="geometry">
            <mxRectangle width="70" height="30" as="alternateBounds" />
          </mxGeometry>
        </mxCell>
        <mxCell id="qNud3ZH2w9W95GEun9CB-595" value="Poor Health Quantity" style="shape=partialRectangle;connectable=0;fillColor=none;top=0;left=0;bottom=0;right=0;align=left;spacingLeft=6;overflow=hidden;whiteSpace=wrap;html=1;" parent="qNud3ZH2w9W95GEun9CB-593" vertex="1">
          <mxGeometry x="70" width="180" height="30" as="geometry">
            <mxRectangle width="180" height="30" as="alternateBounds" />
          </mxGeometry>
        </mxCell>
        <mxCell id="qNud3ZH2w9W95GEun9CB-596" value="" style="shape=tableRow;horizontal=0;startSize=0;swimlaneHead=0;swimlaneBody=0;fillColor=none;collapsible=0;dropTarget=0;points=[[0,0.5],[1,0.5]];portConstraint=eastwest;top=0;left=0;right=0;bottom=0;" parent="qNud3ZH2w9W95GEun9CB-577" vertex="1">
          <mxGeometry y="300" width="250" height="30" as="geometry" />
        </mxCell>
        <mxCell id="qNud3ZH2w9W95GEun9CB-597" value="INT" style="shape=partialRectangle;connectable=0;fillColor=none;top=0;left=0;bottom=0;right=0;editable=1;overflow=hidden;whiteSpace=wrap;html=1;" parent="qNud3ZH2w9W95GEun9CB-596" vertex="1">
          <mxGeometry width="70" height="30" as="geometry">
            <mxRectangle width="70" height="30" as="alternateBounds" />
          </mxGeometry>
        </mxCell>
        <mxCell id="qNud3ZH2w9W95GEun9CB-598" value="Unusable Health Quantity" style="shape=partialRectangle;connectable=0;fillColor=none;top=0;left=0;bottom=0;right=0;align=left;spacingLeft=6;overflow=hidden;whiteSpace=wrap;html=1;" parent="qNud3ZH2w9W95GEun9CB-596" vertex="1">
          <mxGeometry x="70" width="180" height="30" as="geometry">
            <mxRectangle width="180" height="30" as="alternateBounds" />
          </mxGeometry>
        </mxCell>
        <mxCell id="qNud3ZH2w9W95GEun9CB-599" value="" style="shape=tableRow;horizontal=0;startSize=0;swimlaneHead=0;swimlaneBody=0;fillColor=none;collapsible=0;dropTarget=0;points=[[0,0.5],[1,0.5]];portConstraint=eastwest;top=0;left=0;right=0;bottom=0;" parent="qNud3ZH2w9W95GEun9CB-577" vertex="1">
          <mxGeometry y="330" width="250" height="30" as="geometry" />
        </mxCell>
        <mxCell id="qNud3ZH2w9W95GEun9CB-600" value="INT" style="shape=partialRectangle;connectable=0;fillColor=none;top=0;left=0;bottom=0;right=0;editable=1;overflow=hidden;whiteSpace=wrap;html=1;" parent="qNud3ZH2w9W95GEun9CB-599" vertex="1">
          <mxGeometry width="70" height="30" as="geometry">
            <mxRectangle width="70" height="30" as="alternateBounds" />
          </mxGeometry>
        </mxCell>
        <mxCell id="qNud3ZH2w9W95GEun9CB-601" value="Discarded Quantity" style="shape=partialRectangle;connectable=0;fillColor=none;top=0;left=0;bottom=0;right=0;align=left;spacingLeft=6;overflow=hidden;whiteSpace=wrap;html=1;" parent="qNud3ZH2w9W95GEun9CB-599" vertex="1">
          <mxGeometry x="70" width="180" height="30" as="geometry">
            <mxRectangle width="180" height="30" as="alternateBounds" />
          </mxGeometry>
        </mxCell>
        <mxCell id="qNud3ZH2w9W95GEun9CB-602" value="" style="shape=tableRow;horizontal=0;startSize=0;swimlaneHead=0;swimlaneBody=0;fillColor=none;collapsible=0;dropTarget=0;points=[[0,0.5],[1,0.5]];portConstraint=eastwest;top=0;left=0;right=0;bottom=0;" parent="qNud3ZH2w9W95GEun9CB-577" vertex="1">
          <mxGeometry y="360" width="250" height="30" as="geometry" />
        </mxCell>
        <mxCell id="qNud3ZH2w9W95GEun9CB-603" value="INT" style="shape=partialRectangle;connectable=0;fillColor=none;top=0;left=0;bottom=0;right=0;editable=1;overflow=hidden;whiteSpace=wrap;html=1;" parent="qNud3ZH2w9W95GEun9CB-602" vertex="1">
          <mxGeometry width="70" height="30" as="geometry">
            <mxRectangle width="70" height="30" as="alternateBounds" />
          </mxGeometry>
        </mxCell>
        <mxCell id="qNud3ZH2w9W95GEun9CB-604" value="Lost Quantity" style="shape=partialRectangle;connectable=0;fillColor=none;top=0;left=0;bottom=0;right=0;align=left;spacingLeft=6;overflow=hidden;whiteSpace=wrap;html=1;" parent="qNud3ZH2w9W95GEun9CB-602" vertex="1">
          <mxGeometry x="70" width="180" height="30" as="geometry">
            <mxRectangle width="180" height="30" as="alternateBounds" />
          </mxGeometry>
        </mxCell>
        <mxCell id="qNud3ZH2w9W95GEun9CB-605" value="" style="shape=tableRow;horizontal=0;startSize=0;swimlaneHead=0;swimlaneBody=0;fillColor=none;collapsible=0;dropTarget=0;points=[[0,0.5],[1,0.5]];portConstraint=eastwest;top=0;left=0;right=0;bottom=0;" parent="qNud3ZH2w9W95GEun9CB-577" vertex="1">
          <mxGeometry y="390" width="250" height="30" as="geometry" />
        </mxCell>
        <mxCell id="qNud3ZH2w9W95GEun9CB-606" value="INT" style="shape=partialRectangle;connectable=0;fillColor=none;top=0;left=0;bottom=0;right=0;editable=1;overflow=hidden;whiteSpace=wrap;html=1;" parent="qNud3ZH2w9W95GEun9CB-605" vertex="1">
          <mxGeometry width="70" height="30" as="geometry">
            <mxRectangle width="70" height="30" as="alternateBounds" />
          </mxGeometry>
        </mxCell>
        <mxCell id="qNud3ZH2w9W95GEun9CB-607" value="Total Quantity" style="shape=partialRectangle;connectable=0;fillColor=none;top=0;left=0;bottom=0;right=0;align=left;spacingLeft=6;overflow=hidden;whiteSpace=wrap;html=1;" parent="qNud3ZH2w9W95GEun9CB-605" vertex="1">
          <mxGeometry x="70" width="180" height="30" as="geometry">
            <mxRectangle width="180" height="30" as="alternateBounds" />
          </mxGeometry>
        </mxCell>
        <mxCell id="qNud3ZH2w9W95GEun9CB-623" style="edgeStyle=orthogonalEdgeStyle;rounded=0;orthogonalLoop=1;jettySize=auto;html=1;exitX=0;exitY=0.5;exitDx=0;exitDy=0;dashed=1;" parent="1" source="qNud3ZH2w9W95GEun9CB-396" target="qNud3ZH2w9W95GEun9CB-479" edge="1">
          <mxGeometry relative="1" as="geometry">
            <Array as="points">
              <mxPoint x="1160" y="1210" />
              <mxPoint x="1160" y="1415" />
            </Array>
          </mxGeometry>
        </mxCell>
        <mxCell id="qNud3ZH2w9W95GEun9CB-625" value="&lt;div&gt;&lt;br&gt;&lt;/div&gt;" style="edgeLabel;html=1;align=center;verticalAlign=middle;resizable=0;points=[];" parent="qNud3ZH2w9W95GEun9CB-623" vertex="1" connectable="0">
          <mxGeometry x="-0.0048" y="1" relative="1" as="geometry">
            <mxPoint x="4" y="8" as="offset" />
          </mxGeometry>
        </mxCell>
        <mxCell id="qNud3ZH2w9W95GEun9CB-624" value="New Product Health Entry auto-generates when orders are inputed. Find last check, if applicable, for the product and add Order Product Quantity to Excellent Health Quantity" style="text;html=1;align=center;verticalAlign=middle;whiteSpace=wrap;rounded=0;" parent="1" vertex="1">
          <mxGeometry x="1020" y="1420" width="250" height="90" as="geometry" />
        </mxCell>
        <mxCell id="qNud3ZH2w9W95GEun9CB-631" style="edgeStyle=orthogonalEdgeStyle;rounded=0;orthogonalLoop=1;jettySize=auto;html=1;endArrow=none;endFill=0;dashed=1;" parent="1" source="qNud3ZH2w9W95GEun9CB-73" edge="1">
          <mxGeometry relative="1" as="geometry">
            <mxPoint x="1240" y="1210" as="targetPoint" />
          </mxGeometry>
        </mxCell>
        <mxCell id="Z7P_d-B9NXPDMU8aZaOI-113" value="dimVariants" style="shape=table;startSize=30;container=1;collapsible=1;childLayout=tableLayout;fixedRows=1;rowLines=0;fontStyle=1;align=center;resizeLast=1;html=1;" vertex="1" parent="1">
          <mxGeometry x="1720" y="680" width="159.99999999999955" height="90" as="geometry" />
        </mxCell>
        <mxCell id="Z7P_d-B9NXPDMU8aZaOI-114" value="" style="shape=tableRow;horizontal=0;startSize=0;swimlaneHead=0;swimlaneBody=0;fillColor=none;collapsible=0;dropTarget=0;points=[[0,0.5],[1,0.5]];portConstraint=eastwest;top=0;left=0;right=0;bottom=1;" vertex="1" parent="Z7P_d-B9NXPDMU8aZaOI-113">
          <mxGeometry y="30" width="159.99999999999955" height="30" as="geometry" />
        </mxCell>
        <mxCell id="Z7P_d-B9NXPDMU8aZaOI-115" value="PK" style="shape=partialRectangle;connectable=0;fillColor=none;top=0;left=0;bottom=0;right=0;fontStyle=1;overflow=hidden;whiteSpace=wrap;html=1;" vertex="1" parent="Z7P_d-B9NXPDMU8aZaOI-114">
          <mxGeometry width="60" height="30" as="geometry">
            <mxRectangle width="60" height="30" as="alternateBounds" />
          </mxGeometry>
        </mxCell>
        <mxCell id="Z7P_d-B9NXPDMU8aZaOI-116" value="Variant ID" style="shape=partialRectangle;connectable=0;fillColor=none;top=0;left=0;bottom=0;right=0;align=left;spacingLeft=6;fontStyle=5;overflow=hidden;whiteSpace=wrap;html=1;" vertex="1" parent="Z7P_d-B9NXPDMU8aZaOI-114">
          <mxGeometry x="60" width="99.99999999999955" height="30" as="geometry">
            <mxRectangle width="99.99999999999955" height="30" as="alternateBounds" />
          </mxGeometry>
        </mxCell>
        <mxCell id="Z7P_d-B9NXPDMU8aZaOI-117" value="" style="shape=tableRow;horizontal=0;startSize=0;swimlaneHead=0;swimlaneBody=0;fillColor=none;collapsible=0;dropTarget=0;points=[[0,0.5],[1,0.5]];portConstraint=eastwest;top=0;left=0;right=0;bottom=0;" vertex="1" parent="Z7P_d-B9NXPDMU8aZaOI-113">
          <mxGeometry y="60" width="159.99999999999955" height="30" as="geometry" />
        </mxCell>
        <mxCell id="Z7P_d-B9NXPDMU8aZaOI-118" value="TEXT" style="shape=partialRectangle;connectable=0;fillColor=none;top=0;left=0;bottom=0;right=0;editable=1;overflow=hidden;whiteSpace=wrap;html=1;" vertex="1" parent="Z7P_d-B9NXPDMU8aZaOI-117">
          <mxGeometry width="60" height="30" as="geometry">
            <mxRectangle width="60" height="30" as="alternateBounds" />
          </mxGeometry>
        </mxCell>
        <mxCell id="Z7P_d-B9NXPDMU8aZaOI-119" value="Variant" style="shape=partialRectangle;connectable=0;fillColor=none;top=0;left=0;bottom=0;right=0;align=left;spacingLeft=6;overflow=hidden;whiteSpace=wrap;html=1;" vertex="1" parent="Z7P_d-B9NXPDMU8aZaOI-117">
          <mxGeometry x="60" width="99.99999999999955" height="30" as="geometry">
            <mxRectangle width="99.99999999999955" height="30" as="alternateBounds" />
          </mxGeometry>
        </mxCell>
        <mxCell id="Z7P_d-B9NXPDMU8aZaOI-124" style="edgeStyle=orthogonalEdgeStyle;rounded=0;orthogonalLoop=1;jettySize=auto;html=1;entryX=1.007;entryY=0.841;entryDx=0;entryDy=0;entryPerimeter=0;" edge="1" parent="1" source="qNud3ZH2w9W95GEun9CB-285" target="qNud3ZH2w9W95GEun9CB-297">
          <mxGeometry relative="1" as="geometry">
            <Array as="points">
              <mxPoint x="2150" y="1000" />
              <mxPoint x="1670" y="1000" />
              <mxPoint x="1670" y="735" />
            </Array>
          </mxGeometry>
        </mxCell>
      </root>
    </mxGraphModel>
  </diagram>
  <diagram name="Data Flow Diagram" id="CuYE42jNoclyWu0RjQfJ">
    <mxGraphModel dx="1273" dy="971" grid="1" gridSize="10" guides="1" tooltips="1" connect="1" arrows="1" fold="1" page="1" pageScale="1" pageWidth="3300" pageHeight="2339" math="0" shadow="0">
      <root>
        <mxCell id="_jwfOkrPF2ARYxX2OPpd-0" />
        <mxCell id="_jwfOkrPF2ARYxX2OPpd-1" parent="_jwfOkrPF2ARYxX2OPpd-0" />
        <mxCell id="FO3_HJFcHITYvvn_br4d-7" style="edgeStyle=orthogonalEdgeStyle;rounded=0;orthogonalLoop=1;jettySize=auto;html=1;entryX=0;entryY=0.5;entryDx=0;entryDy=0;" edge="1" parent="_jwfOkrPF2ARYxX2OPpd-1" source="FO3_HJFcHITYvvn_br4d-0" target="FO3_HJFcHITYvvn_br4d-6">
          <mxGeometry relative="1" as="geometry" />
        </mxCell>
        <mxCell id="FO3_HJFcHITYvvn_br4d-8" value="Purchase Order" style="edgeLabel;html=1;align=center;verticalAlign=middle;resizable=0;points=[];spacingLeft=0;" vertex="1" connectable="0" parent="FO3_HJFcHITYvvn_br4d-7">
          <mxGeometry x="0.0551" y="-3" relative="1" as="geometry">
            <mxPoint y="-3" as="offset" />
          </mxGeometry>
        </mxCell>
        <mxCell id="FO3_HJFcHITYvvn_br4d-0" value="Project Manager" style="html=1;dashed=0;whiteSpace=wrap;" vertex="1" parent="_jwfOkrPF2ARYxX2OPpd-1">
          <mxGeometry x="940" y="1200" width="100" height="50" as="geometry" />
        </mxCell>
        <mxCell id="FO3_HJFcHITYvvn_br4d-13" style="edgeStyle=orthogonalEdgeStyle;rounded=0;orthogonalLoop=1;jettySize=auto;html=1;exitX=1;exitY=0.5;exitDx=0;exitDy=0;" edge="1" parent="_jwfOkrPF2ARYxX2OPpd-1" source="FO3_HJFcHITYvvn_br4d-6" target="FO3_HJFcHITYvvn_br4d-9">
          <mxGeometry relative="1" as="geometry">
            <mxPoint x="1400" y="1224.7575757575758" as="targetPoint" />
          </mxGeometry>
        </mxCell>
        <mxCell id="FO3_HJFcHITYvvn_br4d-6" value="Inventory Manager" style="html=1;dashed=0;whiteSpace=wrap;" vertex="1" parent="_jwfOkrPF2ARYxX2OPpd-1">
          <mxGeometry x="1230" y="1200" width="100" height="50" as="geometry" />
        </mxCell>
        <mxCell id="FO3_HJFcHITYvvn_br4d-19" style="edgeStyle=orthogonalEdgeStyle;rounded=0;orthogonalLoop=1;jettySize=auto;html=1;entryX=0.506;entryY=0.06;entryDx=0;entryDy=0;entryPerimeter=0;" edge="1" parent="_jwfOkrPF2ARYxX2OPpd-1" source="FO3_HJFcHITYvvn_br4d-18" target="FO3_HJFcHITYvvn_br4d-5">
          <mxGeometry relative="1" as="geometry">
            <mxPoint x="1695" y="1180" as="targetPoint" />
          </mxGeometry>
        </mxCell>
        <mxCell id="FO3_HJFcHITYvvn_br4d-20" value="Request equipment" style="edgeLabel;html=1;align=center;verticalAlign=middle;resizable=0;points=[];" vertex="1" connectable="0" parent="FO3_HJFcHITYvvn_br4d-19">
          <mxGeometry x="-0.0181" y="2" relative="1" as="geometry">
            <mxPoint x="-3" y="-17" as="offset" />
          </mxGeometry>
        </mxCell>
        <mxCell id="FO3_HJFcHITYvvn_br4d-18" value="Inventory Manager" style="html=1;dashed=0;whiteSpace=wrap;" vertex="1" parent="_jwfOkrPF2ARYxX2OPpd-1">
          <mxGeometry x="1645" y="970" width="100" height="50" as="geometry" />
        </mxCell>
        <mxCell id="FO3_HJFcHITYvvn_br4d-16" style="edgeStyle=orthogonalEdgeStyle;rounded=0;orthogonalLoop=1;jettySize=auto;html=1;entryX=0.5;entryY=1;entryDx=0;entryDy=0;" edge="1" parent="_jwfOkrPF2ARYxX2OPpd-1" source="FO3_HJFcHITYvvn_br4d-5" target="FO3_HJFcHITYvvn_br4d-0">
          <mxGeometry relative="1" as="geometry">
            <Array as="points">
              <mxPoint x="1695" y="1340" />
              <mxPoint x="990" y="1340" />
            </Array>
          </mxGeometry>
        </mxCell>
        <mxCell id="FO3_HJFcHITYvvn_br4d-17" value="Purchase Requests / Low Stock Summary / Inventory Summary" style="edgeLabel;html=1;align=center;verticalAlign=middle;resizable=0;points=[];" vertex="1" connectable="0" parent="FO3_HJFcHITYvvn_br4d-16">
          <mxGeometry x="0.0167" y="3" relative="1" as="geometry">
            <mxPoint x="-1" y="-3" as="offset" />
          </mxGeometry>
        </mxCell>
        <mxCell id="hWKxoTcxOR_eBBg11hqr-0" style="edgeStyle=orthogonalEdgeStyle;rounded=0;orthogonalLoop=1;jettySize=auto;html=1;exitX=1;exitY=0.5;exitDx=0;exitDy=0;exitPerimeter=0;entryX=0;entryY=0.5;entryDx=0;entryDy=0;" edge="1" parent="_jwfOkrPF2ARYxX2OPpd-1" source="FO3_HJFcHITYvvn_br4d-5" target="FO3_HJFcHITYvvn_br4d-22">
          <mxGeometry relative="1" as="geometry" />
        </mxCell>
        <mxCell id="hWKxoTcxOR_eBBg11hqr-2" style="edgeStyle=orthogonalEdgeStyle;rounded=0;orthogonalLoop=1;jettySize=auto;html=1;exitX=1;exitY=0.5;exitDx=0;exitDy=0;exitPerimeter=0;" edge="1" parent="_jwfOkrPF2ARYxX2OPpd-1" source="FO3_HJFcHITYvvn_br4d-5" target="FO3_HJFcHITYvvn_br4d-25">
          <mxGeometry relative="1" as="geometry" />
        </mxCell>
        <mxCell id="hWKxoTcxOR_eBBg11hqr-4" style="edgeStyle=orthogonalEdgeStyle;rounded=0;orthogonalLoop=1;jettySize=auto;html=1;exitX=1;exitY=0.5;exitDx=0;exitDy=0;exitPerimeter=0;entryX=0;entryY=0.5;entryDx=0;entryDy=0;" edge="1" parent="_jwfOkrPF2ARYxX2OPpd-1" source="FO3_HJFcHITYvvn_br4d-5" target="FO3_HJFcHITYvvn_br4d-28">
          <mxGeometry relative="1" as="geometry" />
        </mxCell>
        <mxCell id="fVS_vBTyZojdPzHHFg9M-1" style="edgeStyle=orthogonalEdgeStyle;rounded=0;orthogonalLoop=1;jettySize=auto;html=1;entryX=0.5;entryY=0;entryDx=0;entryDy=0;" edge="1" parent="_jwfOkrPF2ARYxX2OPpd-1" source="FO3_HJFcHITYvvn_br4d-5" target="FO3_HJFcHITYvvn_br4d-6">
          <mxGeometry relative="1" as="geometry">
            <Array as="points">
              <mxPoint x="1695" y="1150" />
              <mxPoint x="1280" y="1150" />
            </Array>
          </mxGeometry>
        </mxCell>
        <mxCell id="fVS_vBTyZojdPzHHFg9M-2" value="Inventory Checklist" style="edgeLabel;html=1;align=center;verticalAlign=middle;resizable=0;points=[];" vertex="1" connectable="0" parent="fVS_vBTyZojdPzHHFg9M-1">
          <mxGeometry x="-0.0167" y="-2" relative="1" as="geometry">
            <mxPoint as="offset" />
          </mxGeometry>
        </mxCell>
        <mxCell id="FO3_HJFcHITYvvn_br4d-5" value="Inventory System" style="shape=tape;whiteSpace=wrap;html=1;strokeWidth=2;size=0.19" vertex="1" parent="_jwfOkrPF2ARYxX2OPpd-1">
          <mxGeometry x="1640" y="1192.5" width="110" height="65" as="geometry" />
        </mxCell>
        <mxCell id="FO3_HJFcHITYvvn_br4d-12" value="" style="group" vertex="1" connectable="0" parent="_jwfOkrPF2ARYxX2OPpd-1">
          <mxGeometry x="1420" y="1210" width="100" height="30" as="geometry" />
        </mxCell>
        <mxCell id="FO3_HJFcHITYvvn_br4d-9" value="&lt;font style=&quot;font-size: 9px;&quot;&gt;CSV&lt;/font&gt;" style="html=1;dashed=0;whiteSpace=wrap;shape=mxgraph.dfd.dataStoreID;align=left;spacingLeft=3;points=[[0,0],[0.5,0],[1,0],[0,0.5],[1,0.5],[0,1],[0.5,1],[1,1]];" vertex="1" parent="FO3_HJFcHITYvvn_br4d-12">
          <mxGeometry width="100" height="30" as="geometry" />
        </mxCell>
        <mxCell id="FO3_HJFcHITYvvn_br4d-11" value="Orders" style="text;strokeColor=none;align=center;fillColor=none;html=1;verticalAlign=middle;whiteSpace=wrap;rounded=0;" vertex="1" parent="FO3_HJFcHITYvvn_br4d-12">
          <mxGeometry x="30" width="70" height="30" as="geometry" />
        </mxCell>
        <mxCell id="FO3_HJFcHITYvvn_br4d-21" value="" style="group" vertex="1" connectable="0" parent="_jwfOkrPF2ARYxX2OPpd-1">
          <mxGeometry x="1890" y="1210" width="100" height="30" as="geometry" />
        </mxCell>
        <mxCell id="FO3_HJFcHITYvvn_br4d-22" value="&lt;font style=&quot;font-size: 9px;&quot;&gt;DB&lt;/font&gt;" style="html=1;dashed=0;whiteSpace=wrap;shape=mxgraph.dfd.dataStoreID;align=left;spacingLeft=3;points=[[0,0],[0.5,0],[1,0],[0,0.5],[1,0.5],[0,1],[0.5,1],[1,1]];" vertex="1" parent="FO3_HJFcHITYvvn_br4d-21">
          <mxGeometry width="100" height="30" as="geometry" />
        </mxCell>
        <mxCell id="FO3_HJFcHITYvvn_br4d-23" value="Orders" style="text;strokeColor=none;align=center;fillColor=none;html=1;verticalAlign=middle;whiteSpace=wrap;rounded=0;" vertex="1" parent="FO3_HJFcHITYvvn_br4d-21">
          <mxGeometry x="30" width="70" height="30" as="geometry" />
        </mxCell>
        <mxCell id="FO3_HJFcHITYvvn_br4d-24" value="" style="group" vertex="1" connectable="0" parent="_jwfOkrPF2ARYxX2OPpd-1">
          <mxGeometry x="1890" y="1250" width="100" height="30" as="geometry" />
        </mxCell>
        <mxCell id="FO3_HJFcHITYvvn_br4d-25" value="&lt;font style=&quot;font-size: 9px;&quot;&gt;DB&lt;/font&gt;" style="html=1;dashed=0;whiteSpace=wrap;shape=mxgraph.dfd.dataStoreID;align=left;spacingLeft=3;points=[[0,0],[0.5,0],[1,0],[0,0.5],[1,0.5],[0,1],[0.5,1],[1,1]];" vertex="1" parent="FO3_HJFcHITYvvn_br4d-24">
          <mxGeometry width="100" height="30" as="geometry" />
        </mxCell>
        <mxCell id="FO3_HJFcHITYvvn_br4d-26" value="Products" style="text;strokeColor=none;align=center;fillColor=none;html=1;verticalAlign=middle;whiteSpace=wrap;rounded=0;" vertex="1" parent="FO3_HJFcHITYvvn_br4d-24">
          <mxGeometry x="30" width="70" height="30" as="geometry" />
        </mxCell>
        <mxCell id="FO3_HJFcHITYvvn_br4d-27" value="" style="group" vertex="1" connectable="0" parent="_jwfOkrPF2ARYxX2OPpd-1">
          <mxGeometry x="1890" y="1290" width="100" height="40" as="geometry" />
        </mxCell>
        <mxCell id="FO3_HJFcHITYvvn_br4d-28" value="&lt;font style=&quot;font-size: 9px;&quot;&gt;DB&lt;/font&gt;" style="html=1;dashed=0;whiteSpace=wrap;shape=mxgraph.dfd.dataStoreID;align=left;spacingLeft=3;points=[[0,0],[0.5,0],[1,0],[0,0.5],[1,0.5],[0,1],[0.5,1],[1,1]];" vertex="1" parent="FO3_HJFcHITYvvn_br4d-27">
          <mxGeometry width="100" height="40" as="geometry" />
        </mxCell>
        <mxCell id="FO3_HJFcHITYvvn_br4d-29" value="Product Health" style="text;strokeColor=none;align=center;fillColor=none;html=1;verticalAlign=middle;whiteSpace=wrap;rounded=0;" vertex="1" parent="FO3_HJFcHITYvvn_br4d-27">
          <mxGeometry x="30" width="70" height="40" as="geometry" />
        </mxCell>
        <mxCell id="FO3_HJFcHITYvvn_br4d-14" style="edgeStyle=orthogonalEdgeStyle;rounded=0;orthogonalLoop=1;jettySize=auto;html=1;entryX=0;entryY=0.5;entryDx=0;entryDy=0;entryPerimeter=0;" edge="1" parent="_jwfOkrPF2ARYxX2OPpd-1" source="FO3_HJFcHITYvvn_br4d-11" target="FO3_HJFcHITYvvn_br4d-5">
          <mxGeometry relative="1" as="geometry" />
        </mxCell>
        <mxCell id="hWKxoTcxOR_eBBg11hqr-1" style="edgeStyle=orthogonalEdgeStyle;rounded=0;orthogonalLoop=1;jettySize=auto;html=1;entryX=1;entryY=0.5;entryDx=0;entryDy=0;entryPerimeter=0;" edge="1" parent="_jwfOkrPF2ARYxX2OPpd-1" source="FO3_HJFcHITYvvn_br4d-22" target="FO3_HJFcHITYvvn_br4d-5">
          <mxGeometry relative="1" as="geometry" />
        </mxCell>
        <mxCell id="fVS_vBTyZojdPzHHFg9M-4" value="" style="endArrow=classic;html=1;rounded=0;entryX=0.5;entryY=1;entryDx=0;entryDy=0;" edge="1" parent="_jwfOkrPF2ARYxX2OPpd-1" target="FO3_HJFcHITYvvn_br4d-6">
          <mxGeometry width="50" height="50" relative="1" as="geometry">
            <mxPoint x="1280" y="1330" as="sourcePoint" />
            <mxPoint x="1380" y="1360" as="targetPoint" />
          </mxGeometry>
        </mxCell>
      </root>
    </mxGraphModel>
  </diagram>
</mxfile>
